<?xml version="1.0" encoding="UTF-8"?>
<svg id="Camada_2" data-name="Camada 2" xmlns="http://www.w3.org/2000/svg" viewBox="0 0 70.16 100.99">
  <defs>
    <style>
      .cls-1 {
        fill: currentColor;
      }
    </style>
  </defs>
  <g id="Camada_1-2" data-name="Camada 1">
    <path class="cls-1" d="M43.73,42.55h.41c2.29,0,4.15-1.86,4.16-4.16v-2.47c0-2.29-1.86-4.15-4.16-4.16h-.39c-.36-4.53-4.14-8.01-8.68-8.01s-8.32,3.49-8.68,8.01h-.38c-2.29,0-4.15,1.86-4.16,4.16v2.47c0,2.29,1.86,4.15,4.16,4.16h1.74c.76,0,1.38-.62,1.38-1.38v-8.71c.02-3.27,2.67-5.91,5.94-5.91s5.92,2.64,5.94,5.91v9.36c0,1.28-1.04,2.32-2.32,2.32h-4.03c-1.84,0-1.84,2.76,0,2.76h4.03c2.52,0,4.66-1.85,5.02-4.35h0ZM45.53,35.93v2.47c0,.77-.62,1.39-1.39,1.4h-.36v-5.26h.36c.77,0,1.39.62,1.39,1.4h0ZM26.37,39.79h-.36c-.77,0-1.39-.63-1.39-1.4v-2.47c0-.77.62-1.39,1.39-1.4h.36v5.26ZM58.65,35.33c0-9.53-5.74-18.13-14.55-21.78-8.81-3.65-18.95-1.63-25.69,5.11-6.74,6.74-8.76,16.88-5.11,25.69,3.65,8.81,12.24,14.55,21.78,14.55,13.01-.01,23.56-10.56,23.57-23.57h0ZM14.27,35.33c0-8.42,5.07-16,12.85-19.22,7.78-3.22,16.73-1.44,22.68,4.51,5.95,5.95,7.73,14.9,4.51,22.68-3.22,7.78-10.81,12.85-19.23,12.85-11.49-.01-20.8-9.32-20.81-20.81h0ZM63.48,77.49c-3.62-2.06-8.48-3.68-14.14-4.7l10.53-13.39c5.88-7.48,9.24-16.39,9.45-25.06.23-9.32-3.08-17.68-9.56-24.16C46.1-3.39,24.05-3.39,10.41,10.18,3.92,16.66.61,25.02.84,34.34c.21,8.68,3.57,17.58,9.45,25.06l10.52,13.39c-5.65,1.02-10.51,2.63-14.12,4.69-4.38,2.5-6.7,5.54-6.7,8.8,0,4.17,3.81,7.97,10.74,10.71,6.52,2.58,15.16,4,24.34,4s17.81-1.42,24.34-4c6.93-2.74,10.74-6.55,10.74-10.71,0-3.25-2.31-6.29-6.68-8.79h0ZM12.36,12.13C24.93-.36,45.23-.36,57.8,12.13c11.77,11.77,11.73,30.51-.11,45.56l-22.61,28.76-22.61-28.76C.63,42.64.59,23.9,12.36,12.13h0ZM58.4,94.42c-6.21,2.46-14.49,3.81-23.32,3.81s-17.11-1.35-23.32-3.81c-5.72-2.26-9-5.23-9-8.14,0-4.63,8.21-9.15,20-11.02l11.23,14.28c.55.7,1.62.7,2.17,0l11.23-14.28c11.79,1.87,20,6.39,20,11.02,0,2.91-3.28,5.88-9,8.14h0Z"/>
  </g>
</svg>