<?xml version="1.0" encoding="UTF-8"?>
<svg id="Camada_2" data-name="Camada 2" xmlns="http://www.w3.org/2000/svg" viewBox="0 0 100.99 88">
  <defs>
    <style>
      .cls-1 {
        fill: currentColor;
      }
    </style>
  </defs>
  <g id="Camada_1-2" data-name="Camada 1">
    <g>
      <path class="cls-1" d="M83.39,25.42h-7.34v-7.82c0-4.48-1.69-8.75-4.75-12.02-.57-.61-1.52-.64-2.13-.07-.61.57-.64,1.52-.07,2.13,2.54,2.71,3.94,6.25,3.94,9.96v7.82h-30.69c-9.7,0-17.6,7.89-17.6,17.6v5.4h-2.36c-.94,0-1.82.37-2.49,1.03l-8.01,8.01v-8.05c0-1.23-.66-2.39-1.72-3.03-4.41-2.62-7.14-7.42-7.14-12.54v-16.24c0-8.04,6.54-14.58,14.58-14.58h40.85c1.88,0,3.72.35,5.45,1.05.77.31,1.65-.06,1.96-.84.31-.77-.06-1.65-.84-1.96-2.09-.84-4.3-1.27-6.58-1.27H17.6C7.89,0,0,7.89,0,17.6v16.24c0,6.17,3.3,11.97,8.62,15.13.15.09.25.26.25.43v8.78c0,1.1.66,2.09,1.68,2.51.68.33,2.07.28,2.96-.59l8.52-8.52c.1-.1.22-.15.36-.15h2.36v7.82c0,2.38.47,4.68,1.38,6.85.32.77,1.21,1.13,1.98.8.77-.32,1.13-1.21.8-1.98-.76-1.8-1.15-3.71-1.15-5.68v-16.24c0-8.04,6.54-14.58,14.58-14.58h41.05c8.04,0,14.58,6.54,14.58,14.58v16.24c0,5.14-2.63,9.8-7.02,12.47-1.04.63-1.68,1.78-1.68,3v9.84l-9.69-9.69c-.66-.66-1.55-1.03-2.49-1.03h-34.75c-3.66,0-7.16-1.36-9.85-3.83-.61-.56-1.57-.52-2.13.09-.56.61-.52,1.57.09,2.13,3.25,2.98,7.47,4.62,11.89,4.62h34.75c.13,0,.26.05.36.15l10.21,10.21c.79.61,1.56,1.07,2.96.59,1.02-.42,1.68-1.41,1.68-2.51v-10.57c0-.17.09-.33.23-.42,5.31-3.22,8.47-8.85,8.47-15.04v-16.24c0-9.7-7.89-17.6-17.6-17.6h0Z"/>
      <path class="cls-1" d="M58.61,61.39c-.88-1.25-2.5-2.09-4.33-2.09-2.79,0-5.05,1.93-5.05,4.29s2.27,4.29,5.05,4.29c2.45,0,4.49-1.48,4.95-3.45,2.23-.94,3.98-2.8,4.74-5.17,2.2-.5,3.85-2.47,3.85-4.83v-5.44c0-2.27-1.54-4.19-3.63-4.77-.49-3.03-1.98-5.81-4.26-7.91-2.55-2.34-5.86-3.64-9.32-3.64-6.82,0-12.51,4.91-13.58,11.55-2.09.58-3.62,2.5-3.62,4.77v5.44c0,2.73,2.22,4.95,4.95,4.95s4.95-2.22,4.95-4.95v-5.44c0-2.13-1.35-3.95-3.24-4.65.98-5,5.35-8.65,10.54-8.65s9.55,3.72,10.54,8.65c-1.89.7-3.24,2.52-3.24,4.65v5.44c0,2.01,1.21,3.75,2.93,4.52-.48,1.03-1.27,1.87-2.24,2.42h0ZM54.27,64.88c-1.2,0-2.04-.67-2.04-1.28s.84-1.28,2.04-1.28,2.04.67,2.04,1.28-.84,1.28-2.04,1.28h0ZM40.29,54.45c0,1.07-.87,1.94-1.94,1.94s-1.94-.87-1.94-1.94v-5.44c0-1.07.87-1.94,1.94-1.94s1.94.87,1.94,1.94v5.44ZM60.93,49.01c0-1.07.87-1.94,1.94-1.94s1.94.87,1.94,1.94v5.44c0,1.07-.87,1.94-1.94,1.94s-1.94-.87-1.94-1.94v-5.44Z"/>
      <path class="cls-1" d="M71.74,41.25h12.01c.83,0,1.51-.67,1.51-1.51s-.68-1.51-1.51-1.51h-12.01c-.83,0-1.51.68-1.51,1.51s.68,1.51,1.51,1.51h0Z"/>
      <path class="cls-1" d="M71.74,48h9.26c.83,0,1.51-.67,1.51-1.51s-.68-1.51-1.51-1.51h-9.26c-.83,0-1.51.68-1.51,1.51s.68,1.51,1.51,1.51h0Z"/>
      <path class="cls-1" d="M17.09,19.73c0,1.24-1.01,2.25-2.25,2.25s-2.25-1.01-2.25-2.25,1.01-2.25,2.25-2.25,2.25,1.01,2.25,2.25h0Z"/>
      <path class="cls-1" d="M23.9,19.73c0,1.24-1.01,2.25-2.25,2.25s-2.25-1.01-2.25-2.25,1.01-2.25,2.25-2.25,2.25,1.01,2.25,2.25h0Z"/>
      <path class="cls-1" d="M30.67,19.73c0,1.24-1.01,2.25-2.25,2.25s-2.25-1.01-2.25-2.25,1.01-2.25,2.25-2.25,2.25,1.01,2.25,2.25h0Z"/>
    </g>
  </g>
</svg>