<?xml version="1.0" encoding="UTF-8"?>
<svg id="Camada_2" data-name="Camada 2" xmlns="http://www.w3.org/2000/svg" viewBox="0 0 100.99 100.99">
  <defs>
    <style>
      .cls-1 {
        fill: currentColor;
      }
    </style>
  </defs>
  <g id="Camada_1-2" data-name="Camada 1">
    <g>
      <path class="cls-1" d="M100.99,16.47v-6.48l-.42-.43c-3.09-3.18-7.23-4.93-11.66-4.93-5.64,0-10.85,2.92-13.82,7.67h-8.2v-4.89c0-3.11-2.51-5.64-5.59-5.64-1.27,0-2.44.42-3.38,1.13-.96-1.74-2.81-2.92-4.94-2.92s-3.97,1.18-4.93,2.92c-.94-.71-2.11-1.13-3.38-1.13-2.7,0-4.97,1.91-5.51,4.46-.83-.48-1.78-.75-2.81-.75-3.11,0-5.64,2.53-5.64,5.64v1.19h-4.81c-.82-1.31-1.81-2.49-2.97-3.53l-1.97,2.2c1.13,1.01,2.07,2.2,2.8,3.52l.42.77h6.53v2.68c0,3.11,2.53,5.64,5.64,5.64,1.65,0,3.13-.71,4.16-1.84,1.03,1.13,2.51,1.84,4.16,1.84s3.17-.73,4.2-1.89c.97,1.02,2.35,1.7,3.96,1.88l6.42.7v2.27H24.18l-.42.77c-2.35,4.26-6.82,6.91-11.67,6.91-3.43,0-6.64-1.28-9.12-3.62v-2.3h8.38l5.55-7.4-5.55-7.4H2.96v-2.3c2.48-2.34,5.7-3.62,9.12-3.62,2.34,0,4.64.62,6.65,1.78l1.48-2.56c-2.46-1.42-5.27-2.17-8.13-2.17C7.65,4.64,3.51,6.39.42,9.57l-.42.43v6.48h9.86l3.33,4.44-3.33,4.44H0v6.48l.42.43c3.09,3.18,7.23,4.93,11.66,4.93,5.64,0,10.85-2.92,13.82-7.68h4.81v5.37l4.15,8.41v57.71h28.31v-8.88h-2.96v5.92h-22.4v-43.26h22.4v34.38h2.96v-45.7l8.99-11.26-.21-2.69h3.13c2.96,4.76,8.18,7.68,13.82,7.68,4.43,0,8.57-1.75,11.66-4.93l.42-.43v-6.48h-9.86l-3.33-4.44,3.33-4.44h9.86ZM61.3,4.74c1.45,0,2.63,1.2,2.63,2.68v4.89h-5.31v-4.89c0-1.48,1.2-2.68,2.68-2.68h0ZM50.3,5.64c0-1.48,1.2-2.68,2.68-2.68s2.68,1.2,2.68,2.68v6.68h-2.68c-.97,0-1.88.25-2.68.68v-7.35ZM36.34,20.63c-1.48,0-2.68-1.2-2.68-2.68v-6.82c0-1.48,1.2-2.68,2.68-2.68s2.68,1.2,2.68,2.68v6.82c0,1.48-1.2,2.68-2.68,2.68h0ZM44.66,20.63c-1.48,0-2.68-1.2-2.68-2.68V7.42c0-1.48,1.2-2.68,2.68-2.68s2.68,1.2,2.68,2.68v10.53c0,1.48-1.2,2.68-2.68,2.68h0ZM37.82,51.81v-2.96h22.4v2.96h-22.4ZM60.21,42.42v3.48h-22.4v-3.3l-4.15-8.4v-4.68h25.58v2.94h2.96v-10.82l-9.06-.99c-1.37-.15-2.84-1.05-2.84-2.69,0-1.48,1.2-2.68,2.68-2.68h12.43c2.31,0,2.58,1.23,2.71,2.97l1.01,13.02-8.91,11.15ZM84.1,20.91l5.55,7.4h8.38v2.3c-2.48,2.34-5.7,3.62-9.12,3.62-4.86,0-9.33-2.65-11.67-6.91l-.42-.77h-5.08l-.65-8.37v-.15c-.06-.67-.14-1.72-.59-2.76h6.33l.42-.77c2.34-4.26,6.82-6.91,11.67-6.91,3.43,0,6.64,1.28,9.12,3.62v2.3h-8.38l-5.55,7.4Z"/>
      <rect class="cls-1" x="54.3" y="57.73" width="2.96" height="2.96"/>
      <rect class="cls-1" x="54.3" y="63.64" width="2.96" height="2.96"/>
    </g>
  </g>
</svg>