<?xml version="1.0" encoding="UTF-8"?>
<svg id="Camada_2" data-name="Camada 2" xmlns="http://www.w3.org/2000/svg" viewBox="0 0 100.98 100.99">
  <defs>
    <style>
      .cls-1 {
        fill: currentColor;
      }
    </style>
  </defs>
  <g id="Camada_1-2" data-name="Camada 1">
    <g>
      <g>
        <path class="cls-1" d="M8.02,82.51l2.21,8.25,8.25,2.21,6.04-6.04-2.21-8.25-8.25-2.21-6.04,6.04ZM19.89,81.1l1.33,4.95-3.62,3.62-4.95-1.33-1.33-4.95,3.62-3.62,4.95,1.33Z"/>
        <path class="cls-1" d="M99.66,12.21l-.82-2.11-13.31,13.31-6.27-1.68-1.68-6.27,13.31-13.31-2.1-.82c-6.58-2.58-14.01-1.36-19.4,3.19l1.91,2.26c3.96-3.34,9.22-4.55,14.18-3.39l-11.19,11.19,2.57,9.57,9.57,2.56,11.19-11.19c1.27,5.43-.32,11.2-4.34,15.22-3.5,3.5-8.33,5.2-13.26,4.67-.14-.02-.3-.03-.46-.05-2.21-.27-6.8-.83-10.67,3.04l-38.39,38.39c-.72-1.29-1.63-2.49-2.71-3.57-1.09-1.09-2.29-1.98-3.58-2.7l38.4-38.4c3.86-3.86,3.31-8.46,3.04-10.67-.02-.17-.04-.32-.05-.46-.47-4.4.88-8.86,3.72-12.23l-2.26-1.91c-3.36,3.98-4.96,9.25-4.4,14.45.02.15.04.32.06.5.24,2.01.65,5.37-2.19,8.22l-39.22,39.22c-5.63-1.81-12.06-.49-16.52,3.97-6.35,6.34-6.35,16.67,0,23.01,3.17,3.17,7.34,4.76,11.51,4.76s8.33-1.59,11.51-4.76c1.79-1.79,3.11-3.91,3.91-6.3l-2.8-.94c-.66,1.95-1.73,3.69-3.2,5.15-5.19,5.19-13.64,5.19-18.83,0-5.19-5.19-5.19-13.64,0-18.83,5.19-5.19,13.64-5.19,18.83,0,2.9,2.9,4.29,6.91,3.81,10.99l2.94.35c.28-2.38.04-4.75-.67-6.95l39.21-39.21c2.84-2.84,6.21-2.44,8.22-2.19.18.02.35.04.5.06,5.82.63,11.53-1.38,15.67-5.52,5.41-5.41,7.1-13.5,4.31-20.62h0Z"/>
      </g>
      <path class="cls-1" d="M62.58,36.31l2.09-2.09,2.09,2.09-2.09,2.09-2.09-2.09Z"/>
      <path class="cls-1" d="M58.4,40.49l2.09-2.09,2.09,2.09-2.09,2.09-2.09-2.09Z"/>
    </g>
  </g>
</svg>