<?xml version="1.0" encoding="UTF-8"?>
<svg id="Camada_2" data-name="Camada 2" xmlns="http://www.w3.org/2000/svg" viewBox="0 0 92.59 100.99">
  <defs>
    <style>
      .cls-1 {
        fill: currentColor;
      }
    </style>
  </defs>
  <g id="Camada_1-2" data-name="Camada 1">
    <g>
      <path class="cls-1" d="M16.92,27.02l-.85,2.02c-2.15,5.07-1.02,10.85,2.87,14.74,3.65,3.65,8.97,4.86,13.8,3.23l9.77,9.77c-1.64,4.83-.42,10.15,3.23,13.79,2.58,2.58,5.99,3.94,9.47,3.94,1.77,0,3.56-.35,5.27-1.07l2.02-.85-8.35-8.35,4.25-4.25,8.35,8.35.85-2.02c2.15-5.07,1.02-10.85-2.87-14.74-3.65-3.65-8.97-4.86-13.8-3.23l-9.77-9.77c1.64-4.83.42-10.15-3.23-13.79-3.89-3.89-9.67-5.01-14.74-2.87l-2.02.85,8.35,8.35-4.25,4.25-8.35-8.35ZM26.54,23.97c3.34-.62,6.81.42,9.29,2.9,3.03,3.03,3.91,7.55,2.24,11.5l-.39.92,12.53,12.53.92-.39c3.95-1.68,8.47-.8,11.5,2.24,2.48,2.48,3.52,5.95,2.9,9.29l-7.15-7.15-8.42,8.42,7.15,7.15c-3.34.62-6.81-.42-9.29-2.9-3.03-3.03-3.91-7.55-2.24-11.5l.39-.92-12.53-12.53-.92.39c-3.95,1.68-8.47.8-11.5-2.24-2.48-2.48-3.52-5.95-2.9-9.29l7.15,7.15,8.42-8.42-7.15-7.15Z"/>
      <path class="cls-1" d="M92.59,17.76c0-2.76-.71-5.49-2.05-7.89l-2.58,1.44c1.1,1.96,1.67,4.19,1.67,6.45,0,7.31-5.95,13.26-13.26,13.26s-13.26-5.95-13.26-13.26,5.95-13.26,13.26-13.26c3.88,0,7.55,1.69,10.07,4.64l2.24-1.92c-3.09-3.6-7.58-5.67-12.32-5.67s-9.17,2.13-12.14,5.49L42.23,0,0,13.5v43.34c0,13.34,7.3,25.57,19.04,31.9l22.73,12.25,23.33-12.31c4.39-2.32,8.19-5.45,11.31-9.31l-2.3-1.85c-2.86,3.55-6.35,6.43-10.38,8.55l-21.94,11.58-21.35-11.51c-10.79-5.82-17.49-17.04-17.49-29.3V15.65L42.23,3.1l20.18,6.45c-.83,1.41-1.45,2.95-1.83,4.58l-18.35-5.87L7.87,19.24v22.33h2.95v-20.18l31.41-10.04,17.95,5.74c0,.22-.02.44-.02.66,0,8,5.82,14.65,13.45,15.97v22.89c0,9.45-5.19,18.07-13.56,22.48l-18.23,9.62-17.65-9.51c-8.24-4.44-13.36-13.01-13.36-22.37v-12.29h-2.95v12.29c0,10.45,5.71,20.01,14.91,24.97l19.03,10.26,19.62-10.35c9.33-4.92,15.13-14.54,15.13-25.09v-22.65c1.72-.02,3.37-.31,4.92-.82v23.48c0,6.66-1.97,13.1-5.7,18.62l2.45,1.65c4.06-6.01,6.2-13.02,6.2-20.28v-24.8c4.87-2.8,8.15-8.05,8.15-14.06h0Z"/>
      <path class="cls-1" d="M70.2,15.39l-2.09,2.09,6.74,6.74,9.39-9.39-2.09-2.09-7.31,7.31-4.65-4.65Z"/>
    </g>
  </g>
</svg>