<?xml version="1.0" encoding="UTF-8"?>
<svg id="Camada_2" data-name="Camada 2" xmlns="http://www.w3.org/2000/svg" viewBox="0 0 95.08 111.51">
  <defs>
    <style>
      .cls-1 {
        fill: currentColor;
      }
    </style>
  </defs>
  <g id="Camada_1-2" data-name="Camada 1">
    <g>
      <path class="cls-1" d="M36.53,18.43c-2.01,0-3.65-1.64-3.65-3.65s1.64-3.65,3.65-3.65,3.65,1.64,3.65,3.65-1.64,3.65-3.65,3.65h0ZM36.53,7.87c-3.81,0-6.92,3.1-6.92,6.92s3.1,6.92,6.92,6.92,6.92-3.1,6.92-6.92c0-3.81-3.1-6.92-6.92-6.92h0Z"/>
      <path class="cls-1" d="M17.83,18.43c-2.01,0-3.65-1.64-3.65-3.65s1.64-3.65,3.65-3.65,3.65,1.64,3.65,3.65-1.64,3.65-3.65,3.65h0ZM17.83,7.87c-3.81,0-6.92,3.1-6.92,6.92s3.1,6.92,6.92,6.92,6.92-3.1,6.92-6.92-3.1-6.92-6.92-6.92h0Z"/>
      <path class="cls-1" d="M78.26,17.97c0,.25-.2.46-.46.46h-18.79c-.25,0-.46-.2-.46-.46v-6.38c0-.25.2-.46.46-.46h18.79c.25,0,.46.2.46.46v6.38h0ZM77.8,7.87h-18.79c-2.05,0-3.72,1.67-3.72,3.72v6.38c0,2.05,1.67,3.72,3.72,3.72h18.79c2.05,0,3.72-1.67,3.72-3.72v-6.38c0-2.05-1.67-3.72-3.72-3.72h0Z"/>
      <g>
        <path class="cls-1" d="M47.54,33.46c-6.7,0-13.04,2.16-18.33,6.25-.71.55-.85,1.58-.29,2.29.55.71,1.58.85,2.29.29,4.72-3.64,10.37-5.57,16.34-5.57,14.75,0,26.76,12,26.76,26.76s-12,26.76-26.76,26.76-26.76-12-26.76-26.76c0-6.14,2.13-12.14,6.01-16.89.57-.7.47-1.73-.23-2.3-.7-.57-1.73-.47-2.3.23-4.35,5.33-6.74,12.07-6.74,18.96,0,16.55,13.47,30.02,30.02,30.02s30.02-13.47,30.02-30.02-13.47-30.02-30.02-30.02h0Z"/>
        <path class="cls-1" d="M82.52,108.24H12.55c-4.56,0-8.37-3.31-9.14-7.65h68.34c.9,0,1.63-.73,1.63-1.63s-.73-1.63-1.63-1.63H3.27V29.57h88.54v67.76h-13.52c-.9,0-1.63.73-1.63,1.63s.73,1.63,1.63,1.63h13.38c-.77,4.34-4.58,7.65-9.14,7.65h0ZM3.27,12.55C3.27,7.43,7.43,3.27,12.55,3.27h69.97c5.12,0,9.28,4.17,9.28,9.29v13.75H3.27v-13.75h0ZM95.07,98.83V12.55c0-6.92-5.63-12.55-12.55-12.55H12.55C5.63,0,0,5.63,0,12.55v86.4c0,6.92,5.63,12.55,12.55,12.55h69.97c6.86,0,12.45-5.53,12.55-12.37,0-.06,0-.27,0-.31h0Z"/>
      </g>
      <path class="cls-1" d="M47.54,44.32c10.57,0,19.16,8.6,19.16,19.16,0,.03,0,.05,0,.08-.01,0-.02-.01-.04-.02-.88-.51-1.84-.84-2.83-1.01-1.25-.22-2.56-.12-3.77.26-.79.24-1.54.61-2.22,1.07-1.68,1.15-3.96,1.14-5.64,0-1.38-.94-2.99-1.44-4.66-1.44s-3.29.5-4.66,1.44c-1.69,1.15-3.96,1.15-5.64,0-1.38-.94-2.99-1.44-4.66-1.44-1.45,0-2.91.39-4.16,1.12-.01,0-.02.01-.04.02,0-.03,0-.05,0-.08,0-10.57,8.6-19.16,19.16-19.16h0ZM60.13,77.93c-3.49,3.04-7.96,4.72-12.6,4.72s-9.11-1.68-12.6-4.72c-3.2-2.79-5.38-6.56-6.2-10.68l1.01-.69c1.68-1.15,3.96-1.15,5.64,0,2.78,1.89,6.54,1.89,9.32,0,1.68-1.14,3.96-1.14,5.64,0,2.78,1.89,6.54,1.89,9.32,0,1.69-1.15,3.96-1.15,5.64,0l1.01.69c-.82,4.13-3,7.89-6.2,10.68h0ZM25.34,66.72s0,0,0,0c.76,5.28,3.41,10.14,7.45,13.67,4.08,3.56,9.32,5.53,14.75,5.53s10.66-1.96,14.75-5.53c4.04-3.53,6.69-8.38,7.45-13.66,0,0,0,0,0,0,.15-1.06.23-2.15.23-3.24,0-12.37-10.06-22.43-22.43-22.43s-22.43,10.06-22.43,22.43c0,1.09.08,2.18.23,3.24h0Z"/>
    </g>
  </g>
</svg>