<?xml version="1.0" encoding="UTF-8"?>
<svg id="Camada_2" data-name="Camada 2" xmlns="http://www.w3.org/2000/svg" viewBox="0 0 100.99 100.99">
  <defs>
    <style>
      .cls-1 {
        fill: currentColor;
      }
    </style>
  </defs>
  <g id="Camada_1-2" data-name="Camada 1">
    <g>
      <path class="cls-1" d="M98.03,78.4c0,2.45-1.99,4.44-4.44,4.44h-2.94v-33.38c0-4.08-3.32-7.4-7.4-7.4h-22.72c-.14,0-.28,0-.42.01.16-2.88-.11-5.85-.77-8.59h26.86c2.45,0,4.44-1.99,4.44-4.44v-15.06c0-2.45-1.99-4.44-4.44-4.44h-28.64c-2.45,0-4.44,1.99-4.44,4.44v7.15c-2.09-2.5-4.59-4.66-7.38-6.37v-7.38c0-2.45,1.99-4.44,4.44-4.44h6.04V0h-6.04c-4.08,0-7.4,3.32-7.4,7.4v5.79C23.36,3.76-.28,18.73,0,40.43c-.28,21.7,23.36,36.68,42.8,27.25v10.72c0,3.44,2.36,6.34,5.55,7.16v2.18c0,3.03,2.11,5.57,4.93,6.24v7h2.96v-6.83h2.96v6.83h2.96v-7c2.82-.67,4.93-3.21,4.93-6.24v-1.95h9.47v1.95c0,3.03,2.11,5.57,4.93,6.24v7h2.96v-6.83h2.96v6.83h2.96v-7c2.82-.67,4.93-3.21,4.93-6.24v-2.15c3.26-.77,5.69-3.7,5.69-7.2v-7.89h-2.96v7.89ZM56.1,13.99c0-.82.66-1.48,1.48-1.48h28.64c.82,0,1.48.66,1.48,1.48v15.06c0,.82-.66,1.48-1.48,1.48h-27.73c-.63-1.81-1.43-3.54-2.38-5.18v-11.36ZM2.96,40.43c0-14.95,12.17-27.12,27.12-27.12,28.18.33,37.29,37.41,13.01,50.91v-10.48c.97-1.17,3.24-4.38,3.24-8.89v-1.65h2.44c2.8.06,5.28-2.41,5.22-5.22,0-2.88-2.34-5.22-5.22-5.22h-3.84c-1.24-1.62-3.2-2.67-5.4-2.67h-9.75c-1.77,0-3.28,1.11-3.87,2.67h-3.25c-3.75-5.7-12.78-4.41-15.21,1.82l-.82,2.03h5.86l.95,1.36-.95,1.37h-5.86l.82,2.03c1.95,5.11,8.9,7.2,13.27,3.85.98,4.32,3.49,7.41,4.54,8.55v13.34c-12.66-2.28-22.3-13.38-22.3-26.69h0ZM46.24,35.73h2.55c1.25,0,2.26,1.01,2.26,2.26.03,1.22-1.05,2.28-2.26,2.26h-2.44c-.03-.87.08-3.71-.1-4.52h0ZM21.46,40.25l-.72.39c-1.64,3.64-6.3,4.29-9.13,1.67h2.45l3-4.32-3-4.32h-2.46c2.59-2.48,7.26-2.05,8.95,1.29l.42.77h4.69v4.52h-4.19ZM28.22,67.49v-14.94c-.58-.61-4-3.53-4.85-9.34h5.23v-8.97c0-.65.53-1.18,1.18-1.18h9.75c2.12,0,3.84,1.72,3.84,3.84v7.96c-.13,4.79-2.76,7.19-3.24,7.71v13.05c-3.63,1.47-7.84,2.16-11.91,1.87h0ZM45.76,78.4v-12.31c2.79-1.71,5.28-3.87,7.38-6.37v23.12h-2.94c-2.45,0-4.44-1.99-4.44-4.44h0ZM64.13,87.75c0,1.9-1.55,3.45-3.45,3.45h-5.92c-1.9,0-3.45-1.55-3.45-3.45v-1.95h12.82v1.95ZM56.1,82.84v-27.33c1.84-3.16,3.12-6.68,3.7-10.43.24-.04.49-.06.74-.06h22.72c2.45,0,4.44,1.99,4.44,4.44v33.38h-31.59ZM92.34,87.75c0,1.9-1.55,3.45-3.45,3.45h-5.92c-1.9,0-3.45-1.55-3.45-3.45v-1.95h12.82v1.95Z"/>
      <path class="cls-1" d="M93.59,0h-34.39v2.96h34.39c2.45,0,4.44,1.99,4.44,4.44v60.16h2.96V7.4c0-4.08-3.32-7.4-7.4-7.4h0Z"/>
      <path class="cls-1" d="M71.9,52.59c-6.25,0-11.34,5.09-11.34,11.34.62,15.05,22.06,15.04,22.68,0,0-6.25-5.09-11.34-11.34-11.34h0ZM71.9,72.31c-4.62,0-8.38-3.76-8.38-8.38-.06-6.15,6.65-10.29,12.1-7.51l-4.94,7.32,2.45,1.66,4.87-7.21c5.01,5.24,1.23,14.15-6.1,14.13h0Z"/>
      <rect class="cls-1" x="67.46" y="20.04" width="2.96" height="2.96"/>
      <rect class="cls-1" x="73.38" y="20.04" width="2.96" height="2.96"/>
    </g>
  </g>
</svg>