<?xml version="1.0" encoding="UTF-8"?>
<svg id="Camada_2" data-name="Camada 2" xmlns="http://www.w3.org/2000/svg" viewBox="0 0 100.64 100.89">
  <defs>
    <style>
      .cls-1 {
        fill: currentColor;
      }
    </style>
  </defs>
  <g id="Camada_1-2" data-name="Camada 1">
    <g>
      <path class="cls-1" d="M88.25,67.88c-1.21-2.93-1.95-4.71-3.18-7.69l4.92-10.37-10.3-10.3-10.37,4.93c-3.01-1.25-4.95-2.05-7.87-3.26l-3.84-10.81h-2.45v-10.16c0-2.45,1.99-4.44,4.44-4.44h12.6c.74,7.19,6.84,12.82,14.22,12.82,18.97-.79,18.97-27.82,0-28.6-7.39,0-13.48,5.63-14.22,12.82h-12.6c-4.08,0-7.4,3.32-7.4,7.4v10.16h-3.94v-10.16c0-4.08-3.32-7.4-7.4-7.4h-12.4C27.71,5.63,21.61,0,14.23,0c-18.97.79-18.96,27.82,0,28.6,7.39,0,13.48-5.63,14.22-12.82h12.4c2.45,0,4.44,1.99,4.44,4.44v10.16h-2.26l-3.84,10.81c-2.92,1.21-4.86,2.01-7.87,3.26l-10.37-4.92-10.3,10.3,4.92,10.36-3.26,7.87-10.81,3.84v15.47h19.99v-2.96H4.46v-10.43l10.08-3.59,4.27-10.3-4.59-9.67,7.35-7.35,9.67,4.59c3.86-1.6,6.65-2.76,10.3-4.27l3.59-10.08h10.4l3.58,10.08c3.65,1.51,6.44,2.67,10.3,4.27l9.67-4.59,7.35,7.35-4.59,9.67c1.6,3.87,2.74,6.62,4.27,10.3l10.08,3.59v10.43h-29.86c8.72-9.74,6.05-25.84-5.39-32.27l-2.22-1.28v18.61l-8.38,4.85-8.38-4.85v-18.61l-2.22,1.28c-11.45,6.43-14.11,22.54-5.39,32.27h-9.88v2.96h13.02c.71.54,1.45,1.04,2.24,1.49,1.38.8,2.23,2.27,2.23,3.85v8.17h2.96v-8.17c0-2.63-1.42-5.08-3.71-6.41-11.08-6.28-12.22-22.29-2.21-30.09v14.96l11.34,6.57,11.34-6.57v-14.96c10.01,7.8,8.87,23.8-2.21,30.09-2.29,1.32-3.71,3.78-3.71,6.42h2.96c0-1.59.85-3.07,2.23-3.86.78-.45,1.53-.95,2.23-1.49h35.97v-15.47l-10.81-3.84-.07-.18ZM86.42,2.96c6.25,0,11.34,5.09,11.34,11.34-.62,15.05-22.06,15.04-22.68,0,0-6.25,5.09-11.34,11.34-11.34h0ZM14.23,25.64c-6.25,0-11.34-5.09-11.34-11.34C3.51-.75,24.95-.74,25.57,14.3c0,6.25-5.09,11.34-11.34,11.34h0Z"/>
      <path class="cls-1" d="M55.75,67.72v-6.25l-5.42-3.12-5.42,3.12v6.25l5.42,3.12,5.42-3.12ZM47.86,63.18l2.47-1.42,2.47,1.42v2.83l-2.47,1.42-2.47-1.42v-2.83Z"/>
      <rect class="cls-1" x="55.75" y="95.69" width="2.96" height="5.2"/>
      <path class="cls-1" d="M11.7,16.73l-2.54-2.54-2.09,2.09,4.63,4.63,9.29-9.29-2.09-2.09-7.2,7.2Z"/>
      <path class="cls-1" d="M82.53,20.28l3.89-3.88,3.89,3.88,2.09-2.09-3.88-3.89,3.88-3.89-2.09-2.09-3.89,3.88-3.89-3.88-2.09,2.09,3.88,3.89-3.88,3.89,2.09,2.09Z"/>
      <rect class="cls-1" x="48.84" y="88.54" width="2.96" height="2.96"/>
      <rect class="cls-1" x="48.84" y="82.42" width="2.96" height="2.96"/>
    </g>
  </g>
</svg>