<?xml version="1.0" encoding="UTF-8"?>
<svg id="Camada_2" data-name="Camada 2" xmlns="http://www.w3.org/2000/svg" viewBox="0 0 100.99 100.75">
  <defs>
    <style>
      .cls-1 {
        fill: currentColor;
      }
    </style>
  </defs>
  <g id="Camada_1-2" data-name="Camada 1">
    <g>
      <path class="cls-1" d="M92.1,69.04l-3.74,2.28v-.03c1.14-2.85-.14-6.07-2.93-7.36-2.83-1.3-6.14-.15-7.55,2.63l-7.17,15.17-13.79-3.9,10.29-4.33c3.19-1.35,4.76-4.96,3.59-8.21-.6-1.67-1.82-2.99-3.43-3.72-1.61-.73-3.41-.78-5.06-.14l-9.32,3.63c-7.02-4.05-12.86-3.24-16.56-1.8-3.1,1.21-5.22,3.02-6.12,3.89h-3.79v-4.81H0v38.41h26.49v-5h9.06l37.05,4,12.78-10.45-1.87-2.29-11.82,9.67-35.9-3.87h-.08s-9.21,0-9.21,0v-22.69h5.07s.44-.5.44-.5c.33-.37,8.17-8.94,20.05-1.65l.63.38,10.68-4.16c.9-.35,1.88-.32,2.76.08.88.4,1.55,1.12,1.88,2.03.64,1.78-.22,3.75-1.96,4.49l-18.07,7.59,23.52,6.65,22.08-13.42c1.31-.74,2.96-.32,3.76.96.8,1.28.44,2.95-.8,3.8l-.05.04-10.65,8.71,1.87,2.29,10.56-8.63c2.52-1.76,3.22-5.15,1.59-7.77-1.64-2.64-5.05-3.5-7.75-1.96h0ZM23.54,97.79H2.95v-32.5h20.58v32.5ZM80.51,67.87c.69-1.34,2.3-1.9,3.67-1.26,1.37.63,2,2.22,1.42,3.62l-1.07,3.41-9.47,5.76,5.45-11.52Z"/>
      <path class="cls-1" d="M13.25,93.29c3.11,0,5.64-2.53,5.64-5.64s-2.53-5.64-5.64-5.64-5.64,2.53-5.64,5.64,2.53,5.64,5.64,5.64h0ZM13.25,84.96c1.48,0,2.68,1.2,2.68,2.68s-1.2,2.68-2.68,2.68-2.68-1.2-2.68-2.68,1.2-2.68,2.68-2.68h0Z"/>
      <path class="cls-1" d="M44.66,19.05l9.54,9.54-2.12,2.12,4.26,4.26-11.34,11.34c-1.29,1.29-2,3.01-2,4.83s.71,3.54,2,4.83c1.33,1.33,3.08,2,4.83,2,1.75,0,3.5-.67,4.83-2l9.95-9.95,12.27,12.27c1.4,1.4,3.25,2.16,5.22,2.16s3.83-.77,5.22-2.16l2.85-2.85c1.4-1.39,2.16-3.25,2.16-5.22s-.77-3.83-2.16-5.22l-12.27-12.27,2.07-2.07c5.72,2.01,12.05.6,16.38-3.73,4.57-4.57,5.89-11.37,3.37-17.32l-.86-2.02-9.89,9.89-5.49-5.49,9.89-9.89-2.02-.85c-5.77-2.45-12.44-1.25-16.99,3.05l2.03,2.15c3.14-2.96,7.52-4.11,11.64-3.18l-8.73,8.73,9.67,9.67,8.73-8.73c.97,4.25-.27,8.74-3.44,11.91-3.71,3.71-9.24,4.79-14.08,2.74l-.92-.39-9.05,9.05,2.09,2.09,3.51-3.51,9.44,9.44-9.12,9.12-9.44-9.44,3.5-3.5-2.09-2.09-15.53,15.53c-1.51,1.51-3.98,1.51-5.49,0-.73-.73-1.14-1.71-1.14-2.75s.4-2.01,1.14-2.74l26.7-26.7-.39-.92c-1.71-4.03-1.22-8.75,1.27-12.33l-2.42-1.69c-2.87,4.13-3.58,9.49-1.93,14.23l-3.46,3.46-4.26-4.26-2.12,2.12-9.54-9.54-.22-4.35L42.29.02l-10.39,10.39,8.41,8.41,4.35.22ZM87.35,46.36l.74.74c.84.84,1.3,1.95,1.3,3.13s-.46,2.3-1.3,3.13l-2.85,2.85c-.84.84-1.95,1.3-3.13,1.3s-2.3-.46-3.13-1.3l-.74-.74,9.12-9.12ZM62.59,24.38l2.17,2.17-6.34,6.34-2.17-2.17,6.34-6.34ZM42.29,4.2l5.52,5.52.22,4.35,10.34,10.34-2.09,2.09-10.34-10.34-4.35-.22-5.52-5.52,6.21-6.21Z"/>
    </g>
  </g>
</svg>