<?xml version="1.0" encoding="UTF-8"?>
<svg id="Camada_2" data-name="Camada 2" xmlns="http://www.w3.org/2000/svg" viewBox="0 0 95.95 97.83">
  <defs>
    <style>
      .cls-1 {
        fill: currentColor;
      }
    </style>
  </defs>
  <g id="Camada_1-2" data-name="Camada 1">
    <path class="cls-1" d="M31.89,13.04c.29.5.82.79,1.37.79.23,0,.46-.05.68-.15,3.67-1.75,7.62-2.8,11.72-3.11.82-.06,1.46-.75,1.46-1.57V1.58c0-.44-.18-.85-.5-1.15-.32-.3-.74-.45-1.18-.42-5.8.37-11.38,1.86-16.57,4.44-.39.19-.68.54-.81.96-.13.42-.07.87.14,1.25l3.69,6.39ZM43.97,3.3v4.26c-3.49.4-6.86,1.3-10.05,2.67l-2.12-3.67c3.87-1.72,7.95-2.81,12.17-3.26h0ZM9.02,63.08c.19.39.54.69.96.81.15.05.3.07.46.07.27,0,.55-.07.79-.21l6.42-3.71c.71-.41.99-1.3.63-2.05-1.76-3.68-2.81-7.62-3.13-11.71-.06-.82-.75-1.46-1.57-1.46h-7.41c-.44,0-.85.18-1.15.5-.3.32-.45.75-.42,1.18.37,5.81,1.86,11.38,4.42,16.57h0ZM12.15,47.99c.41,3.47,1.31,6.84,2.68,10.04l-3.69,2.13c-1.71-3.87-2.8-7.95-3.25-12.17h4.26ZM6.17,42.54h7.44c.82,0,1.5-.63,1.57-1.44.36-4.1,1.42-8.03,3.15-11.7.35-.74.07-1.63-.64-2.04l-6.46-3.73c-.38-.22-.83-.27-1.24-.14-.42.13-.76.42-.96.81-2.57,5.19-4.06,10.77-4.44,16.57-.03.44.13.86.42,1.18.3.32.72.5,1.15.5h0ZM11.14,27.22l3.74,2.16c-1.36,3.18-2.26,6.54-2.69,10.01h-4.3c.44-4.22,1.54-8.3,3.26-12.17h0ZM95.7,47.8c-.41-.84-1.25-1.37-2.19-1.37h-1.55c.06-.92.09-1.83.09-2.75,0-11.2-4.23-21.86-11.91-30.01C72.5,5.56,62.18.71,51.09,0c-.43-.03-.86.13-1.18.42s-.5.72-.5,1.15v7.41c0,.82.63,1.51,1.46,1.57,17.18,1.33,30.63,15.87,30.63,33.12,0,.92-.04,1.84-.11,2.75h-1.01c-.94,0-1.78.52-2.19,1.37-.41.84-.3,1.83.28,2.56l6.57,8.35c.46.59,1.16.93,1.91.93s1.44-.34,1.91-.93l6.57-8.35c.58-.74.69-1.72.28-2.56h0ZM86.95,56.03l-5.07-6.44h.93c.8,0,1.47-.59,1.57-1.38.19-1.49.28-3.01.28-4.52,0-9.22-3.46-18.02-9.73-24.77-5.91-6.35-13.8-10.35-22.35-11.36V3.29c20.5,2.16,36.32,19.58,36.32,40.39,0,1.39-.07,2.79-.21,4.17-.05.44.1.89.4,1.22.3.33.72.52,1.17.52h1.77l-5.07,6.44ZM12.38,21.64l6.44,3.72c.25.14.52.21.79.21.51,0,1-.24,1.31-.69,2.31-3.39,5.18-6.29,8.53-8.6.68-.47.88-1.38.47-2.09l-3.69-6.39c-.22-.38-.58-.65-1.01-.75-.43-.1-.87-.02-1.24.22-4.82,3.22-8.9,7.3-12.12,12.13-.24.36-.32.81-.23,1.23.1.43.37.79.75,1.01h0ZM24.35,10.86l2.12,3.67c-2.78,2.09-5.23,4.57-7.31,7.38l-3.7-2.14c2.5-3.42,5.48-6.41,8.9-8.91h0ZM70.26,64.32l-15.21,8.86c-.58.34-1.17.6-1.77.78.18-.37.34-.78.45-1.21.81-3.02-.98-6.17-4.08-7.18-.07-.02-.14-.04-.21-.05-4.35-.79-8.66-2.34-12.12-3.59-1.21-.44-2.35-.85-3.32-1.16-3.98-1.29-7.56.29-10.53,2.02l-11.12,6.44-.95-1.69c-.5-.88-1.32-1.52-2.3-1.8-.98-.27-2.01-.15-2.9.35l-4.27,2.42c-1.83,1.04-2.48,3.37-1.44,5.2l12.55,22.17c.5.89,1.32,1.52,2.3,1.8.34.09.69.14,1.03.14.65,0,1.29-.17,1.87-.5l4.27-2.42c.89-.5,1.52-1.32,1.8-2.3.27-.98.15-2.01-.35-2.9l-1.18-2.09,2.3-1.33,19.39,5.2c1.1.29,2.18.44,3.26.44,2.17,0,4.26-.6,6.18-1.78l27.61-17c2.62-1.61,3.45-5.67,1.75-8.51-.82-1.37-4.19-5.46-13-.33h0ZM21.27,91.78c-.03.1-.1.28-.31.4l-4.27,2.42c-.2.12-.4.09-.5.06-.1-.03-.28-.1-.4-.31l-12.55-22.17c-.18-.31-.06-.73.25-.9l4.27-2.42c.11-.06.22-.08.32-.08.07,0,.14.01.18.02.1.03.28.1.4.31l12.55,22.17c.12.21.09.4.06.5h0ZM79.86,70.47l-27.61,17c-2.13,1.31-4.48,1.64-6.96.98l-20.03-5.37c-.4-.11-.84-.05-1.2.16l-2.84,1.64-7.3-12.91,11.15-6.45c2.49-1.44,5.18-2.65,7.98-1.75.92.3,1.99.68,3.22,1.13,3.54,1.28,7.94,2.87,12.52,3.71,1.47.52,2.28,1.93,1.91,3.33-.49,1.83-2.03,2.06-3.26,1.92-2.23-.46-4.35-1.06-6.59-1.7-1.07-.31-2.17-.62-3.31-.93-.84-.23-1.71.27-1.93,1.12-.23.84.27,1.71,1.12,1.93,1.11.3,2.21.61,3.26.91,2.33.66,6.95,1.79,6.96,1.79l1.89.31c2.88.46,5.44.01,7.82-1.38l15.21-8.86c4.26-2.48,7.51-2.77,8.71-.77.82,1.36.46,3.48-.7,4.2h0ZM8.89,72.93c.12.83-.45,1.61-1.29,1.73-.83.12-1.61-.45-1.73-1.29-.12-.83.46-1.61,1.29-1.73.83-.12,1.61.45,1.73,1.29h0ZM61.69,28.9c0-6.3-5.12-11.42-11.42-11.42s-11.42,5.12-11.42,11.42c0,3.84,1.91,7.24,4.82,9.31-7.66,2.51-13.42,9.3-14.32,17.72-.05.44.1.89.4,1.22.3.33.73.52,1.17.52h38.69c.45,0,.87-.19,1.17-.52.3-.33.44-.78.39-1.22-.9-8.42-6.66-15.21-14.32-17.72,2.91-2.07,4.82-5.47,4.82-9.31h0ZM67.77,54.52h-35c1.7-8.21,8.94-14.21,17.5-14.21,0,0,0,0,0,0h0c8.56,0,15.8,6,17.5,14.21h0ZM50.27,37.16h0c-4.55,0-8.25-3.71-8.25-8.26s3.71-8.26,8.26-8.26,8.26,3.7,8.26,8.26-3.7,8.26-8.25,8.26c0,0,0,0,0,0h0Z"/>
  </g>
</svg>