<?xml version="1.0" encoding="UTF-8"?>
<svg id="Camada_2" data-name="Camada 2" xmlns="http://www.w3.org/2000/svg" viewBox="0 0 114.04 117.82">
  <defs>
    <style>
      .cls-1 {
        fill: currentColor;
      }
    </style>
  </defs>
  <g id="Camada_1-2" data-name="Camada 1">
    <g>
      <path class="cls-1" d="M110.49,90.28h-1.34s-.09-.03-.1-.08c-.27-.8-.59-1.58-.97-2.34-.02-.05-.02-.1.01-.13l.95-.95c.67-.67,1.04-1.57,1.04-2.52s-.37-1.84-1.04-2.52l-2.85-2.85c-.67-.67-1.57-1.04-2.52-1.04s-1.84.37-2.52,1.04l-.95.95s-.09.04-.13.01c-.75-.38-1.54-.7-2.34-.97-.05-.02-.08-.06-.08-.1v-1.34c0-1.96-1.6-3.56-3.56-3.56h-1.48c-1.48-1.02-3.1-1.77-4.83-2.26l-20.88-5.82c-.66-.18-1.36-.13-1.98.13-.5-.69-.81-1.57-.81-2.39v-5.78c.98-.63,1.93-1.34,2.85-2.14,3.98-3.43,6.48-8.38,7.01-13.78,2.92-.11,5.25-2.52,5.25-5.46v-4.14c0-1.84-.9-3.49-2.34-4.49l.27-1.01c.04-.16.06-.32.06-.48v-7.81c0-.95-.77-1.73-1.73-1.73s-1.73.77-1.73,1.73v5.4c-7.26-2.45-14.67-3.69-22.06-3.69s-14.8,1.24-22.06,3.69v-9.01c0-3.91,2.65-7.27,6.45-8.17l12.09-2.88c2.01-.48,4.14-.49,6.15-.03l12.89,2.96c2.46.57,4.52,2.19,5.65,4.45.42.85,1.46,1.2,2.31.78.85-.42,1.2-1.46.78-2.31-1.59-3.2-4.49-5.49-7.97-6.28L55.13.43c-2.53-.58-5.2-.57-7.72.03l-12.09,2.88c-5.36,1.28-9.11,6.02-9.11,11.53v11.42c0,.08,0,.17.01.25,0,0,0,0,0,.01,0,0,0,.02,0,.03,0,0,0,.02,0,.03,0,0,0,0,0,0,.01.06.03.13.04.19l.26.98c-1.45,1-2.34,2.65-2.34,4.49v4.14c0,2.94,2.34,5.35,5.25,5.46.53,5.4,3.03,10.35,7.01,13.78.92.79,1.87,1.5,2.85,2.14v5.78c0,.82-.31,1.7-.81,2.39-.62-.26-1.32-.31-1.98-.13l-20.88,5.82c-6.01,1.68-10.58,6.73-11.63,12.89l-.87,5.1c-.16.94.47,1.83,1.41,1.99.1.02.2.03.29.03.83,0,1.56-.59,1.7-1.44l.87-5.1c.83-4.84,4.42-8.82,9.15-10.14l9.87-2.75,9.52,10.86s.04.04.06.07c0,0,0,.01.02.02.02.02.03.04.05.06,0,0,0,0,0,0,.02.02.04.04.06.06,0,0,0,0,.01.02l.05.05s0,0,.01.01c.02.02.04.04.06.06,0,0,0,0,.01.01.02.02.03.03.05.05,0,0,0,0,.01.01.02.02.04.04.06.06,0,0,0,0,0,0,.02.02.04.03.05.05,0,0,.01.01.02.02.02.02.04.04.06.06,0,0,0,0,0,0,.02.02.04.04.06.05,0,0,.01.01.02.02.02.02.04.03.06.05,0,0,0,0,0,0,.02.02.04.04.07.06,0,0,.01,0,.02.02.02.01.04.03.05.04h.02s.04.05.07.06c0,0,.01,0,.02.01.02.01.03.03.05.04,0,0,.01.01.02.02l.06.05s.01,0,.02.01c.02.01.03.03.05.04l.02.02s.04.03.07.05c0,0,0,0,.01,0,.02.01.04.03.06.04l.02.02s.03.02.05.03h.02s.04.04.06.05c0,0,.02.01.03.02.02,0,.03.02.05.03,0,0,.02.01.03.02.02.01.04.03.07.04l.03.02.05.03s.02.01.03.02c.02.01.04.03.06.04.01,0,.02.01.03.02.01,0,.03.02.04.02.01,0,.02.01.03.02.02,0,.03.02.05.03.01,0,.03.02.04.02.01,0,.03.02.04.02.01,0,.02.01.04.02.01,0,.02.01.04.02l.1.05s.03.01.04.02c.01,0,.02.01.04.02.02,0,.04.02.05.03.02,0,.03.01.05.02.01,0,.03.01.04.02,0,0,.02,0,.03.01.02,0,.03.01.05.02,0,0,.01,0,.02,0,.03.01.06.03.09.04h.03s.03.02.04.03c0,0,.02,0,.03.01.03.01.05.02.08.03,0,0,.02,0,.02,0,.02,0,.03.01.05.02,0,0,.01,0,.02,0,.03.01.07.02.1.04,0,0,0,0,.01,0,.02,0,.03.01.05.02,0,0,.01,0,.02,0,.06.02.11.04.17.05,0,0,0,0,.01,0,.06.02.11.03.17.05,0,0,0,0,.02,0,.06.02.12.03.18.05,0,0,0,0,0,0,.02,0,.04,0,.06.01,0,0,0,0,0,0l.12.03s0,0,0,0c.02,0,.04,0,.06.01,0,0,0,0,0,0,.06.01.12.02.18.03,0,0,0,0,.01,0,.06.01.12.02.18.03,0,0,0,0,.01,0,.06,0,.12.02.18.03,0,0,0,0,0,0,.02,0,.04,0,.06,0,0,0,0,0,0,0,.04,0,.08,0,.13.01,0,0,0,0,0,0,.02,0,.04,0,.06,0,0,0,0,0,0,0,.06,0,.12,0,.19.01,0,0,0,0,.01,0,.06,0,.12,0,.18,0,0,0,.01,0,.02,0,.06,0,.12,0,.18,0h.02s.02,0,.03,0c.21,0,.41,0,.62-.03h0s.09,0,.13-.01c.13-.01.26-.03.39-.05,0,0,0,0,.01,0,.02,0,.04,0,.05,0,0,0,0,0,.01,0,.02,0,.03,0,.05,0,0,0,.01,0,.02,0,.02,0,.03,0,.05,0,0,0,.01,0,.02,0,.01,0,.03,0,.05,0,0,0,.02,0,.02,0,.02,0,.03,0,.05,0,0,0,.01,0,.02,0,.02,0,.03,0,.05,0,0,0,0,0,.01,0,.05-.01.11-.02.16-.04,0,0,.02,0,.03,0,.01,0,.03,0,.04,0h.03s.02-.01.04-.02h.03s.02-.02.04-.02c.01,0,.02,0,.03,0,.01,0,.02,0,.03,0,.01,0,.02,0,.03,0,.01,0,.02,0,.03,0,.01,0,.03,0,.04-.01,0,0,.02,0,.03,0,.01,0,.03,0,.04-.01,0,0,.02,0,.03,0,.01,0,.03,0,.04-.01h.02s.05-.02.07-.03l8.02-2.73,8.01,2.73s.05.02.07.02c0,0,.01,0,.02,0,.02,0,.03.01.05.02h.03s.04.02.04.02c0,0,.02,0,.03,0,.01,0,.03,0,.04.01,0,0,.02,0,.03,0,.01,0,.02,0,.04.01.01,0,.02,0,.03,0,.01,0,.02,0,.03,0,.01,0,.02,0,.04,0,.01,0,.02,0,.03,0,.01,0,.02,0,.04,0,.01,0,.02,0,.04,0,.01,0,.02,0,.03,0,0,0,.02,0,.03,0,.05.01.11.03.16.04,0,0,0,0,.02,0,.02,0,.03,0,.05,0,0,0,.02,0,.02,0,.01,0,.03,0,.04,0,0,0,.02,0,.03,0,.01,0,.03,0,.04,0,.01,0,.02,0,.03,0,.01,0,.03,0,.04,0,0,0,.02,0,.03,0,.01,0,.03,0,.04,0,0,0,.02,0,.03,0,.01,0,.03,0,.04,0,0,0,.02,0,.03,0,.01,0,.03,0,.04,0,0,0,.01,0,.02,0,.05,0,.11.02.17.02,0,0,.01,0,.02,0,.01,0,.03,0,.04,0,0,0,.02,0,.03,0,.01,0,.03,0,.04,0,0,0,.02,0,.03,0,.01,0,.03,0,.04,0,.01,0,.02,0,.03,0,.01,0,.03,0,.04,0h.03s.02,0,.04,0h.03s.04,0,.04,0c.01,0,.02,0,.03,0,.01,0,.03,0,.04,0,.01,0,.03,0,.04,0,0,0,.02,0,.03,0,.02,0,.03,0,.05,0,0,0,.01,0,.02,0,.02,0,.04,0,.07,0,0,0,.02,0,.02,0,.02,0,.03,0,.05,0h.03s.03,0,.04,0h.18s.06,0,.09,0c0,0,.01,0,.02,0,.03,0,.05,0,.08,0h.01s.06,0,.09,0h.09s0,0,.01,0c.06,0,.12,0,.18-.01,0,0,0,0,.01,0,.06,0,.12-.01.18-.02,0,0,0,0,.01,0,.06,0,.12-.02.18-.02,0,0,0,0,0,0,.03,0,.06,0,.08-.01h0s.06-.01.09-.02h0s.06-.01.09-.02c0,0,0,0,0,0,.06-.01.12-.02.18-.04,0,0,0,0,0,0,.06-.01.12-.03.18-.04h.01c.06-.02.12-.03.18-.05,0,0,0,0,0,0,.03,0,.06-.02.08-.02,0,0,0,0,0,0,.03,0,.06-.02.09-.03,0,0,0,0,0,0,.03,0,.05-.02.08-.03,0,0,0,0,0,0,.06-.02.12-.04.17-.06,0,0,0,0,0,0,.06-.02.11-.04.17-.06,0,0,0,0,.01,0,.05-.02.11-.04.16-.06,0,0,0,0,.01,0,.03,0,.05-.02.08-.03,0,0,0,0,0,0,.03-.01.05-.02.08-.03,0,0,0,0,0,0,.02-.01.05-.02.07-.03,0,0,0,0,.01,0,.03-.01.05-.02.08-.04,0,0,0,0,0,0,.02-.01.05-.02.07-.03,0,0,.01,0,.02,0,.05-.02.1-.05.15-.08,0,0,.01,0,.02,0,.02-.01.05-.02.07-.04,0,0,0,0,0,0l.08-.04s.01,0,.02-.01c.02-.01.04-.02.06-.03,0,0,0,0,.01,0,.02-.01.05-.03.07-.04,0,0,.01,0,.02-.01.02-.01.04-.02.06-.03,0,0,.01,0,.02-.01l.07-.04s.01,0,.02-.01c.02-.01.04-.02.06-.03h.02s.05-.04.07-.06c0,0,0,0,0,0,.02-.01.04-.03.06-.04,0,0,.01,0,.02-.01.02-.01.04-.03.06-.04,0,0,0,0,0,0,.02-.02.04-.03.07-.05,0,0,.02-.01.02-.02.02-.01.03-.02.05-.04,0,0,.01,0,.02-.01.02-.02.04-.03.06-.05,0,0,.02-.01.02-.02l.05-.04s.01-.01.02-.02c.02-.02.04-.03.06-.05,0,0,.01-.01.02-.02.02-.01.03-.03.05-.04,0,0,.02-.01.02-.02.02-.02.04-.03.06-.05,0,0,0,0,.02-.01.02-.01.03-.03.05-.04,0,0,.02-.01.02-.02.02-.02.04-.03.05-.05,0,0,0,0,.02-.01.02-.02.04-.03.06-.05,0,0,.01-.01.02-.02.02-.02.03-.03.05-.05,0,0,0,0,.01-.01.02-.02.04-.04.06-.06,0,0,.02-.01.02-.02.01-.01.03-.03.04-.04,0,0,.01-.01.02-.02.02-.02.04-.04.06-.06l.02-.02s.03-.03.04-.05c0,0,.01-.01.02-.02.02-.02.04-.04.06-.06,0,0,0,0,0-.01.02-.02.03-.04.05-.05,0,0,.01-.01.02-.02.02-.02.04-.04.06-.07l9.52-10.86,9.87,2.75c.18.05.35.1.52.16-.54.62-.87,1.44-.87,2.33v1.34s-.03.09-.08.1c-.8.27-1.58.59-2.34.97-.05.02-.1.02-.13-.01l-.95-.95c-1.39-1.39-3.65-1.39-5.03,0l-2.85,2.85c-1.39,1.39-1.39,3.65,0,5.03l.95.95s.04.09.01.13c-.38.75-.7,1.54-.97,2.34-.02.05-.06.08-.1.08h-1.34c-1.96,0-3.56,1.6-3.56,3.56v4.03c0,1.96,1.6,3.56,3.56,3.56h1.34s.09.03.1.08c.27.8.59,1.59.97,2.34.02.05.02.1-.01.13l-.95.95c-1.39,1.39-1.39,3.65,0,5.03l.83.83H5.75c-.68,0-1.32-.3-1.76-.82-.44-.52-.62-1.2-.51-1.87l1.68-9.83c.16-.94-.47-1.83-1.41-1.99-.94-.16-1.83.47-1.99,1.41L.08,107.52c-.29,1.67.18,3.38,1.27,4.68,1.1,1.3,2.7,2.04,4.4,2.04h80.76v.02c0,1.96,1.6,3.56,3.56,3.56h4.03c1.96,0,3.56-1.6,3.56-3.56v-1.34s.03-.09.08-.1c.8-.27,1.59-.59,2.34-.97.05-.03.1-.02.13.01l.95.95c.67.67,1.57,1.04,2.52,1.04s1.84-.37,2.52-1.04l2.85-2.85c.67-.67,1.04-1.57,1.04-2.52s-.37-1.84-1.04-2.52l-.95-.95s-.04-.09-.01-.13c.38-.75.7-1.54.97-2.34.02-.05.06-.08.11-.08h1.34c1.96,0,3.56-1.6,3.56-3.56v-4.03c0-1.96-1.6-3.56-3.56-3.56h0ZM51.71,23.64c7.27,0,14.56,1.27,21.7,3.76l-.41,1.52c-.15.57-.52,1.03-1.03,1.32-.51.28-1.09.34-1.64.17-12.24-3.76-24.66-3.8-36.9-.11-.12.04-.24.07-.36.11-.55.17-1.13.11-1.64-.17-.11-.06-.22-.13-.31-.21-.03-.02-.06-.05-.08-.07-.03-.02-.05-.05-.08-.07-.27-.26-.46-.59-.56-.96l-.05-.2-.13-.48s0,0,0,0l-.22-.83c7.14-2.5,14.44-3.76,21.7-3.76h0ZM38.71,53.03c-3.65-3.14-5.81-7.85-5.91-12.92-.02-.94-.79-1.69-1.72-1.69h-1.41c-1.11,0-2.01-.9-2.01-2.01v-4.14c0-.28.06-.56.17-.81,0,0,0,.01.01.02,0,0,.01.02.02.03,0,.01.01.02.02.03,0,.01.02.02.02.03,0,.01.02.03.03.04.01.02.02.03.03.05,0,0,.01.02.02.03,0,.01.02.02.02.03,0,0,.02.02.02.03,0,.01.02.02.03.03,0,0,.01.02.02.03,0,.01.02.02.03.03,0,0,.01.02.02.03,0,.01.02.02.03.04,0,0,.01.02.02.03.01.02.03.04.04.05,0,0,.01.02.02.02,0,.01.02.02.03.03,0,0,.02.02.02.03l.03.03s.02.02.03.03c0,0,.02.02.03.03,0,0,.02.02.02.03.01.01.02.03.04.04,0,0,.01.01.02.02.02.02.03.03.05.05l.03.03s.02.02.03.03c0,0,.02.02.03.03,0,0,.02.02.03.03,0,0,.02.02.03.03,0,0,.02.02.03.03,0,0,.02.02.03.03,0,0,.02.02.03.03.02.02.03.03.05.05,0,0,.02.02.03.02.01,0,.02.02.03.03,0,0,.02.01.03.02l.03.03s.02.01.03.02l.03.03s.02.01.03.02c.01,0,.02.02.04.03,0,0,.02.01.02.02.02.02.05.04.07.05,0,0,.01.01.02.02.01,0,.03.02.04.03,0,0,.02.01.02.02.01,0,.03.02.04.03,0,0,.02.01.02.02.01,0,.03.02.04.03,0,0,.01,0,.02.02.01,0,.03.02.04.03,0,0,0,0,.01,0,.04.02.07.05.11.07t0,0l.05.03s.01,0,.02.01c.02,0,.03.02.04.03,0,0,.01,0,.02.01.02,0,.03.02.05.03,0,0,.01,0,.02,0,.04.02.07.04.11.06.03.01.05.03.08.04,0,0,0,0,0,0,.03.01.05.03.08.04,0,0,0,0,0,0,.02.01.05.03.08.04,0,0,0,0,0,0,.05.03.11.05.16.07,0,0,0,0,0,0,.02,0,.05.02.07.03h.01s.05.03.07.03c0,0,0,0,0,0,.05.02.1.04.15.06,0,0,.01,0,.02,0,.02,0,.04.01.06.02h.02s.04.02.06.03c0,0,.01,0,.02,0,.03,0,.05.02.08.03,0,0,.01,0,.02,0,.02,0,.04.01.06.02,0,0,.02,0,.03,0,.02,0,.03,0,.05.01,0,0,.02,0,.03,0,.02,0,.03.01.05.02,0,0,.02,0,.02,0,.02,0,.05.01.07.02,0,0,.02,0,.03,0,.02,0,.03,0,.05.01h.04s.04.02.04.02c.01,0,.02,0,.04,0,.01,0,.03,0,.04,0,.01,0,.02,0,.04,0,.02,0,.05,0,.07.01.01,0,.02,0,.04,0,.01,0,.03,0,.04,0,.01,0,.03,0,.04,0,.01,0,.03,0,.04,0,.01,0,.03,0,.04,0,.01,0,.03,0,.04,0,.02,0,.03,0,.05,0,.02,0,.04,0,.05,0,.01,0,.03,0,.04,0,.01,0,.02,0,.04,0,.01,0,.03,0,.04,0,.01,0,.02,0,.03,0,.01,0,.03,0,.04,0,.01,0,.02,0,.03,0,.03,0,.05,0,.08,0,0,0,.02,0,.03,0,.01,0,.03,0,.04,0,.01,0,.02,0,.03,0,.02,0,.03,0,.04,0,.01,0,.02,0,.03,0,.02,0,.03,0,.05,0,.01,0,.02,0,.03,0,.03,0,.06,0,.08,0,0,0,.02,0,.03,0h.01c.18,0,.36,0,.54-.03h0c.07,0,.14-.01.2-.02,0,0,0,0,0,0,.02,0,.04,0,.07,0,.02,0,.04,0,.07-.01h0s.04,0,.06-.01c0,0,0,0,0,0,.02,0,.04,0,.06-.01,0,0,0,0,0,0,.02,0,.04,0,.07-.01,0,0,0,0,0,0,.02,0,.04,0,.06-.01,0,0,0,0,.01,0,.04,0,.09-.02.13-.03h.01s.03-.01.05-.02c0,0,0,0,.01,0,.04-.01.08-.02.13-.03,0,0,0,0,.02,0,.02,0,.03,0,.05-.01,0,0,.01,0,.02,0,.02,0,.04-.01.06-.02,10-3.07,20.12-3.51,30.15-1.33.19.04.38.08.58.13.09.02.18.04.27.06.15.03.29.07.44.1.17.04.33.08.5.12.11.03.22.05.33.08.18.05.36.09.55.14.39.1.79.21,1.18.32.41.12.82.24,1.23.37,1.45.45,2.99.29,4.32-.45.02-.01.05-.03.07-.04,0,0,.02,0,.02-.01.02,0,.03-.02.05-.03,0,0,.02,0,.02-.01.02,0,.03-.02.04-.03,0,0,.02-.01.03-.02.02,0,.03-.02.05-.03,0,0,.01,0,.02-.01.05-.03.09-.06.13-.09,0,0,.01,0,.02-.01.02-.01.03-.02.05-.03,0,0,.01,0,.02-.02.02-.01.03-.02.05-.03,0,0,.01,0,.02-.02.02-.01.03-.02.05-.03h.02s.04-.05.06-.06h0s.04-.03.06-.05c0,0,.01,0,.02-.01.02-.01.03-.02.04-.03,0,0,.01-.01.02-.02.01-.01.03-.02.04-.03,0,0,.01-.01.02-.02.01-.01.03-.02.04-.03l.02-.02s.08-.07.12-.1c0,0,.01-.01.02-.02.01-.01.03-.02.04-.04,0,0,.01-.01.02-.02.01-.01.03-.02.04-.04,0,0,.01-.01.02-.02.01-.01.03-.03.04-.04,0,0,.01-.01.02-.02.02-.02.04-.04.05-.06h0s.03-.04.05-.06c0,0,.01-.01.02-.02.01-.01.02-.03.04-.04,0,0,.01-.01.02-.02.01-.01.02-.03.04-.04,0,0,.01-.01.02-.02.01-.01.03-.03.04-.04,0,0,0,0,.01-.02.02-.02.03-.04.05-.06,0,0,0,0,0,0,.01-.02.03-.04.04-.05,0,0,0-.01.02-.02.01-.01.02-.03.03-.04,0,0,0-.01.02-.02.01-.01.02-.03.03-.04,0,0,0-.01.02-.02.01-.02.02-.03.04-.05,0,0,0,0,.01-.01.02-.02.03-.04.05-.06h0s.03-.04.04-.06c0,0,0-.01.01-.02.01-.01.02-.03.03-.04,0,0,0,0,0-.01.11.25.17.53.17.81v4.14c0,1.11-.9,2.01-2.01,2.01h-1.41c-.94,0-1.71.75-1.72,1.69-.11,5.07-2.27,9.78-5.91,12.92-1,.86-2.04,1.61-3.11,2.25-.03.01-.05.03-.08.05-2.94,1.72-6.18,2.63-9.63,2.7h-.18s-.15,0-.15,0h-.03c-3.45-.07-6.69-.98-9.63-2.7-.03-.02-.06-.03-.08-.05-1.08-.64-2.11-1.39-3.11-2.25h0ZM42.59,81.88c-1.44.49-3.03.07-4.03-1.08l-8.43-9.62,7.08-1.97,11.25,10.67-5.87,2ZM41.13,68.18c1.01-1.3,1.63-2.99,1.63-4.62v-3.94c2.66,1.14,5.5,1.76,8.49,1.85h0s.09,0,.13,0h.02s.08,0,.12,0h.03s.09,0,.14,0h.04s.09,0,.14,0h.03s.08,0,.12,0h.02s.09,0,.13,0c3-.09,5.84-.7,8.5-1.85v3.94c0,1.63.61,3.31,1.63,4.62l-10.58,10.04-10.58-10.04ZM64.87,80.8c-1.01,1.15-2.59,1.57-4.03,1.08l-5.87-2,11.25-10.67,7.08,1.97-8.43,9.62ZM110.59,97.87c0,.06-.05.11-.11.11h-1.34c-1.53,0-2.89.98-3.38,2.44-.21.64-.48,1.28-.78,1.88-.69,1.38-.42,3.03.66,4.12l.95.95s.03.03.03.08-.02.07-.03.08l-2.85,2.85s-.03.03-.08.03-.07-.02-.08-.03l-.95-.95c-1.08-1.09-2.74-1.35-4.12-.66-.61.3-1.24.57-1.88.78-1.46.49-2.44,1.84-2.44,3.38v1.34c0,.06-.05.11-.11.11h-4.03c-.06,0-.11-.05-.11-.11v-1.34c0-1.53-.98-2.89-2.44-3.38-.64-.21-1.28-.48-1.88-.78-.51-.26-1.06-.38-1.61-.38-.92,0-1.83.36-2.51,1.04l-.95.95s-.11.04-.15,0l-2.85-2.85s-.04-.11,0-.15l.95-.95c1.08-1.08,1.35-2.74.66-4.12-.3-.6-.57-1.24-.78-1.88-.49-1.46-1.85-2.44-3.38-2.44h-1.34c-.06,0-.11-.05-.11-.11v-4.03c0-.06.05-.11.11-.11h1.34c1.53,0,2.89-.98,3.38-2.44.21-.64.48-1.28.78-1.88.69-1.38.42-3.03-.66-4.12l-.95-.95s-.04-.11,0-.15l2.85-2.85s.11-.04.15,0l.95.95c1.09,1.09,2.74,1.35,4.12.66.61-.3,1.24-.57,1.88-.78,1.46-.49,2.44-1.84,2.44-3.38v-1.34c0-.06.05-.11.11-.11h4.03c.06,0,.11.05.11.11v1.34c0,1.53.98,2.89,2.44,3.38.64.21,1.28.48,1.88.78,1.38.69,3.03.42,4.12-.66l.95-.95s.03-.03.08-.03.07.02.08.03l2.85,2.85s.03.03.03.08-.02.07-.03.08l-.95.95c-1.08,1.08-1.35,2.74-.66,4.12.3.61.57,1.24.78,1.88.49,1.46,1.85,2.44,3.38,2.44h1.34c.06,0,.11.05.11.11v4.03h0Z"/>
      <path class="cls-1" d="M92.08,87.45c-4.64,0-8.41,3.77-8.41,8.41s3.77,8.41,8.41,8.41,8.41-3.77,8.41-8.41-3.77-8.41-8.41-8.41h0ZM92.08,100.81c-2.73,0-4.96-2.22-4.96-4.96s2.22-4.96,4.96-4.96,4.96,2.22,4.96,4.96-2.22,4.96-4.96,4.96h0Z"/>
      <path class="cls-1" d="M41.17,101.85c1.5,0,2.71-1.22,2.71-2.71v-4.53c0-1.49-1.22-2.71-2.71-2.71h-13.16c-1.49,0-2.71,1.22-2.71,2.71v4.53c0,1.49,1.22,2.71,2.71,2.71h13.16ZM28.75,95.35h11.68v3.05h-11.68v-3.05Z"/>
    </g>
  </g>
</svg>