<?xml version="1.0" encoding="UTF-8"?>
<svg id="Camada_2" data-name="Camada 2" xmlns="http://www.w3.org/2000/svg" viewBox="0 0 100.99 100.99">
  <defs>
    <style>
      .cls-1 {
        fill: currentColor;
      }
    </style>
  </defs>
  <g id="Camada_1-2" data-name="Camada 1">
    <g>
      <g>
        <rect class="cls-1" x="2.96" width="2.96" height="14.19"/>
        <path class="cls-1" d="M100.99,48.03v-2.96h-9.59v-11.28c10.55-5.34,12.88-20.12,4.4-28.45-4.91-5.06-12.72-6.72-19.23-4.12l-2.11.82,9.05,9.05-1,5.74-5.74,1-9.19-9.19-.88,1.96c-3.92,8.37-.18,19.02,8.03,23.18v11.28h-5.66c-.61-1.72-2.25-2.96-4.18-2.96h-6.46v-4.95h4.68v-2.96h-12.32v2.96h4.68v4.95h-6.46c-1.93,0-3.57,1.24-4.18,2.96h-5.19V0h-2.96v45.07h-4.93V0h-2.96v45.07h-6.26c-.81-.91-1.99-1.48-3.3-1.48h-2.47v-.99c0-1.93-1.24-3.57-2.96-4.18V0h-2.96v38.17h-4.93v-21.02h-2.96v21.27c-1.72.61-2.96,2.25-2.96,4.18v15.78c0,1.93,1.24,3.57,2.96,4.18v38.42h2.96v-38.17h4.93v38.17h2.96v-38.42c1.72-.61,2.96-2.25,2.96-4.18v-.99h2.47c1.31,0,2.49-.57,3.3-1.48h6.26v16.43c-1.72.61-2.96,2.25-2.96,4.18v15.78c0,1.93,1.24,3.57,2.96,4.18v4.5h2.96v-4.24h4.93v4.24h2.96v-4.5c1.72-.61,2.96-2.25,2.96-4.18v-.99h2.47c1.31,0,2.49-.57,3.3-1.48h30.42v-2.96h-29.29v-4.93h51.48v-2.96h-52.61c-.81-.91-1.99-1.48-3.3-1.48h-2.47v-.99c0-1.93-1.24-3.57-2.96-4.18v-16.43h5.19c.61,1.72,2.25,2.96,4.18,2.96h15.88c1.93,0,3.57-1.24,4.18-2.96h5.66v11.3c0,4.59,3.74,8.33,8.33,8.33s8.33-3.74,8.33-8.33v-11.3h9.59v-2.96h-9.59v-4.93h9.59ZM20.71,52.96c0,.82-.66,1.48-1.48,1.48h-5.42v3.94c0,.82-.66,1.48-1.48,1.48h-7.89c-.82,0-1.48-.66-1.48-1.48v-15.78c0-.82.66-1.48,1.48-1.48h7.89c.82,0,1.48.66,1.48,1.48v3.94h5.42c.82,0,1.48.66,1.48,1.48v4.93ZM23.67,48.03h20.91v4.93h-20.91v-4.93ZM45.07,80.47c.82,0,1.48.66,1.48,1.48v4.93c0,.82-.66,1.48-1.48,1.48h-5.42v3.94c0,.82-.66,1.48-1.48,1.48h-7.89c-.82,0-1.48-.66-1.48-1.48v-15.78c0-.82.66-1.48,1.48-1.48h7.89c.82,0,1.48.66,1.48,1.48v3.94h5.42ZM36.69,72.09h-4.93v-16.17h4.93v16.17ZM66.37,54.44c0,.82-.66,1.48-1.48,1.48h-15.88c-.82,0-1.48-.66-1.48-1.48v-7.89c0-.82.66-1.48,1.48-1.48h15.88c.82,0,1.48.66,1.48,1.48v7.89ZM69.33,52.96v-4.93h5.4v4.93h-5.4ZM88.44,31.92v35.29c0,2.96-2.41,5.37-5.37,5.37s-5.37-2.41-5.37-5.37V31.92c-7.09-2.75-11.16-10.69-9.04-18.02l7.11,7.11,9.31-1.62,1.62-9.31-6.79-6.79c1.33-.29,2.69-.39,4.07-.31,16,1.33,19.39,22.83,4.48,28.94h0Z"/>
      </g>
      <rect class="cls-1" x="81.75" y="86.88" width="19.24" height="2.96"/>
      <rect class="cls-1" x="81.59" y="58.98" width="2.96" height="2.96"/>
      <rect class="cls-1" x="81.59" y="64.9" width="2.96" height="2.96"/>
    </g>
  </g>
</svg>