<?xml version="1.0" encoding="UTF-8"?>
<svg id="Camada_2" data-name="Camada 2" xmlns="http://www.w3.org/2000/svg" viewBox="0 0 100.99 101.04">
  <defs>
    <style>
      .cls-1 {
        fill: currentColor;
      }
    </style>
  </defs>
  <g id="Camada_1-2" data-name="Camada 1">
    <g>
      <path class="cls-1" d="M28.14,57.3l4.95-5.09,2.63.58.66,2.61-4.95,5.09,2.05.82c4.18,1.69,9.04.72,12.23-2.56.57-.64,2.86-3.22,3.48-3.89h2.62l3.43,3.8,6.55-2.71-.26-5.11,1.85-1.85,5.11.26,2.71-6.55-3.8-3.43v-2.62c.69-.64,3.24-2.91,3.89-3.48,3.26-3.17,4.26-7.97,2.56-12.22l-.82-2.05-5.09,4.95-2.61-.65-.58-2.63,5.09-4.95-2.03-.88c-4.21-1.82-9.03-.95-12.29,2.22-.41.4-.78.82-1.12,1.24l-2.59,2.86h-2.62l-3.43-3.8-6.55,2.71.26,5.11-1.85,1.85-5.11-.26-2.71,6.55,3.8,3.43v2.62l-2.86,2.58c-.43.34-.85.71-1.25,1.12-3.17,3.26-4.05,8.09-2.22,12.29l.88,2.03ZM67.66,43.51l-1.11,2.69-4.34-.22-3.71,3.71.22,4.34-2.69,1.11-2.91-3.23h-4.42c.04-.96-.04-1.95-.26-2.94l13.05-13.05c.99.22,1.98.3,2.94.26v4.42l3.23,2.91ZM33.33,32.43l1.11-2.69,4.34.22,3.71-3.71-.22-4.34,2.69-1.11,2.91,3.23h4.27c-.04.81.01,1.63.17,2.46l-13.28,13.29c-.83-.16-1.66-.21-2.46-.17v-4.26l-3.23-2.91ZM31.61,45.04c1.82-1.89,4.56-3.26,8.32-1.99l15.65-15.65-.22-.83c-1.53-5.95,4-10.44,8.98-9.75l-2.85,2.77,1.34,6.03,5.99,1.5,2.85-2.77c.61,5.53-4.67,10.3-10.19,8.5l-.85-.25-15.5,15.5.25.85c1.8,5.53-2.97,10.81-8.5,10.19l2.77-2.85-1.5-5.99-6.03-1.34-2.77,2.85c-.31-2.45.48-4.95,2.26-6.77h0Z"/>
      <path class="cls-1" d="M2.96,62.62V13.31C2.96,7.6,7.6,2.96,13.31,2.96h8.48V0h-8.48C5.97,0,0,5.97,0,13.31v49.31c0,7.34,5.97,13.31,13.31,13.31h26.37l-5.07,16.23c-4.03.06-7.29,3.35-7.29,7.39v1.48h46.35v-1.48c0-4.04-3.26-7.34-7.29-7.39l-5.07-16.23h14.93v-2.96H13.31c-5.71,0-10.36-4.65-10.36-10.36h0ZM70.46,98.08H30.53c.61-1.72,2.26-2.96,4.18-2.96h31.56c1.93,0,3.57,1.24,4.19,2.96h0ZM37.71,92.16l4.99-15.98h15.58l4.99,15.98h-25.56Z"/>
      <path class="cls-1" d="M87.67,0H24.75v2.96h62.92c5.71,0,10.36,4.65,10.36,10.36v49.31c0,5.71-4.65,10.36-10.36,10.36h-8.48v2.96h8.48c7.34,0,13.31-5.97,13.31-13.31V13.31c0-7.34-5.97-13.31-13.31-13.31h0Z"/>
      <path class="cls-1" d="M5.92,13.31v49.31c0,4.08,3.32,7.4,7.4,7.4h74.36c4.08,0,7.4-3.32,7.4-7.4V13.31c0-4.08-3.32-7.4-7.4-7.4H13.31c-4.08,0-7.4,3.32-7.4,7.4h0ZM92.11,13.31v49.31c0,2.45-1.99,4.44-4.44,4.44H13.31c-2.45,0-4.44-1.99-4.44-4.44V13.31c0-2.45,1.99-4.44,4.44-4.44h74.36c2.45,0,4.44,1.99,4.44,4.44h0Z"/>
      <rect class="cls-1" x="17.36" y="16.81" width="2.96" height="2.96"/>
      <rect class="cls-1" x="23.27" y="16.81" width="2.96" height="2.96"/>
      <rect class="cls-1" x="74.75" y="56.16" width="2.96" height="2.96"/>
      <rect class="cls-1" x="80.67" y="56.16" width="2.96" height="2.96"/>
    </g>
  </g>
</svg>