<?xml version="1.0" encoding="UTF-8"?>
<svg id="Camada_2" data-name="Camada 2" xmlns="http://www.w3.org/2000/svg" viewBox="0 0 90.53 100.99">
  <defs>
    <style>
      .cls-1 {
        fill: currentColor;
      }
    </style>
  </defs>
  <g id="Camada_1-2" data-name="Camada 1">
    <g>
      <path class="cls-1" d="M39.75,0H3.84C1.72,0,0,1.72,0,3.84v7.73c.07,1.96,2.89,1.96,2.96,0V3.84c0-.48.39-.88.88-.88h3.21v3.48c0,1.34,1.09,2.44,2.44,2.44h11.89c1.34,0,2.44-1.09,2.44-2.44v-3.48h15.94c.49,0,.88.39.88.88v22.06h-4.16c-2.2-17.58-27.17-17.57-29.36,0H2.96v-7.32c-.07-1.96-2.89-1.96-2.96,0v29.56c0,.89.31,1.71.82,2.36-.51.65-.82,1.47-.82,2.36v44.29c0,2.12,1.72,3.84,3.84,3.84h35.91c2.12,0,3.84-1.72,3.84-3.84v-44.29c0-.89-.31-1.71-.82-2.36.51-.65.82-1.47.82-2.36V3.84c0-2.12-1.72-3.84-3.84-3.84h0ZM20.85,5.92h-10.85v-2.96h10.85v2.96ZM36.47,74.91c-2.2-17.58-27.17-17.57-29.36,0H2.96v-22.06c0-.49.39-.88.88-.88h3.2v3.48c0,1.34,1.09,2.44,2.44,2.44h11.89c1.34,0,2.44-1.09,2.44-2.44v-3.48h15.94c.48,0,.88.39.88.88v22.06h-4.16ZM21.8,64.6c6.5,0,11.79,5.29,11.79,11.79-.59,15.62-23,15.62-23.59,0,0-6.5,5.29-11.79,11.79-11.79h0ZM10,51.97h10.85v2.96h-10.85v-2.96ZM21.8,15.58c6.5,0,11.79,5.29,11.79,11.79-.59,15.62-23,15.62-23.59,0,0-6.5,5.29-11.79,11.79-11.79h0ZM7.12,28.86c2.19,17.59,27.17,17.57,29.36,0h4.16v19.28c0,.48-.39.88-.88.88H3.84c-.48,0-.88-.39-.88-.88v-19.28h4.16ZM39.75,98.03H3.84c-.49,0-.88-.39-.88-.88v-19.28h4.16c2.19,17.59,27.17,17.57,29.36,0h4.16v19.28c0,.49-.39.88-.88.88h0Z"/>
      <path class="cls-1" d="M90.53,3.84c0-2.12-1.72-3.84-3.84-3.84h-35.91c-2.12,0-3.84,1.72-3.84,3.84v44.29c0,.89.31,1.71.82,2.36-.51.65-.82,1.47-.82,2.36v44.29c0,2.12,1.72,3.84,3.84,3.84h35.91c2.12,0,3.84-1.72,3.84-3.84v-7.48c-.07-1.96-2.89-1.96-2.96,0v7.48c0,.49-.39.88-.88.88h-35.91c-.49,0-.88-.39-.88-.88v-19.28h4.16c2.19,17.59,27.17,17.57,29.36,0h4.16v4.7c.07,1.96,2.89,1.96,2.96,0v-29.72c0-.89-.31-1.71-.82-2.36.51-.65.82-1.47.82-2.36V3.84ZM56.95,51.97h10.85v2.96h-10.85v-2.96ZM50.78,49.01c-.49,0-.88-.39-.88-.88v-19.28h4.16c2.19,17.59,27.17,17.57,29.36,0h4.16v19.28c0,.49-.39.88-.88.88h-35.91ZM68.74,15.58c6.5,0,11.79,5.29,11.79,11.79-.59,15.62-23,15.62-23.59,0,0-6.5,5.29-11.79,11.79-11.79h0ZM67.79,2.96v2.96h-10.85v-2.96h10.85ZM50.78,2.96h3.2v3.48c0,1.34,1.09,2.44,2.44,2.44h11.89c1.34,0,2.44-1.09,2.44-2.44v-3.48h15.94c.48,0,.88.39.88.88v22.06h-4.16c-2.2-17.58-27.17-17.57-29.36,0h-4.16V3.84c0-.49.39-.88.88-.88h0ZM68.74,88.19c-6.5,0-11.79-5.29-11.79-11.79.59-15.63,23-15.62,23.59,0,0,6.5-5.29,11.79-11.79,11.79h0ZM83.42,74.91c-2.2-17.58-27.17-17.57-29.36,0h-4.16v-22.06c0-.49.39-.88.88-.88h3.2v3.48c0,1.34,1.09,2.44,2.44,2.44h11.89c1.34,0,2.44-1.09,2.44-2.44v-3.48h15.94c.48,0,.88.39.88.88v22.06h-4.16Z"/>
      <path class="cls-1" d="M36.19,8.88c1.96-.07,1.96-2.89,0-2.96h-3.86c-1.96.07-1.96,2.89,0,2.96h3.86Z"/>
      <path class="cls-1" d="M79.48,8.88h3.86c1.96-.07,1.96-2.89,0-2.96h-3.86c-1.96.07-1.96,2.89,0,2.96h0Z"/>
      <path class="cls-1" d="M36.19,55.72h-3.86c-1.96.07-1.96,2.89,0,2.96h3.86c1.96-.07,1.96-2.89,0-2.96h0Z"/>
      <path class="cls-1" d="M83.33,55.72h-3.86c-1.96.07-1.96,2.89,0,2.96h3.86c1.96-.07,1.96-2.89,0-2.96h0Z"/>
      <path class="cls-1" d="M32.34,45.83h3.86c1.96-.07,1.96-2.89,0-2.96h-3.86c-1.96.07-1.96,2.89,0,2.96h0Z"/>
      <path class="cls-1" d="M83.33,42.87h-3.86c-1.96.07-1.96,2.89,0,2.96h3.86c1.96-.07,1.96-2.89,0-2.96h0Z"/>
      <path class="cls-1" d="M36.19,92.68h-3.86c-1.96.07-1.96,2.89,0,2.96h3.86c1.96-.07,1.96-2.89,0-2.96h0Z"/>
      <path class="cls-1" d="M79.48,92.68c-1.96.07-1.96,2.89,0,2.96h3.86c1.96-.07,1.96-2.89,0-2.96h-3.86Z"/>
    </g>
  </g>
</svg>