<?xml version="1.0" encoding="UTF-8"?>
<svg id="Camada_2" data-name="Camada 2" xmlns="http://www.w3.org/2000/svg" viewBox="0 0 100.99 100.86">
  <defs>
    <style>
      .cls-1 {
        fill: currentColor;
      }
    </style>
  </defs>
  <g id="Camada_1-2" data-name="Camada 1">
    <g>
      <path class="cls-1" d="M92.88,7.29h-12.91c-.82,0-1.48.66-1.48,1.48s.66,1.48,1.48,1.48h12.91c.82,0,1.48-.66,1.48-1.48s-.66-1.48-1.48-1.48h0Z"/>
      <path class="cls-1" d="M72.65,10.24h1.57c.82,0,1.48-.66,1.48-1.48s-.66-1.48-1.48-1.48h-1.57c-.82,0-1.48.66-1.48,1.48s.66,1.48,1.48,1.48h0Z"/>
      <path class="cls-1" d="M72.65,17.19h20.24c.82,0,1.48-.66,1.48-1.48s-.66-1.48-1.48-1.48h-20.24c-.82,0-1.48.66-1.48,1.48s.66,1.48,1.48,1.48h0Z"/>
      <path class="cls-1" d="M78,87.53c0-5.91-1.97-11.71-5.57-16.39l.27-5.05c.19-3.44-2.54-6.35-6.01-6.35h-16.19c-.74-.53-1.2-1.38-1.2-2.31v-4.13c2.51-1.62,4.27-3.48,5.57-5.68h2.86c3.31,0,6.01-2.69,6.01-6.01v-11.05c0-1.86-1.08-3.51-2.69-4.29v-7.75c0-3.53-2.87-6.4-6.4-6.4h-.17c-.1,0-.18-.08-.18-.18,0-3.53-2.87-6.4-6.4-6.4h-15.67c-7.78,0-14.1,6.33-14.1,14.1v6.64c-1.61.78-2.69,2.43-2.69,4.29v5.62c0,2.63,2.14,4.77,4.77,4.77h1.91c.49,4.18,2.46,8,5.53,10.65.72.62,1.47,1.18,2.23,1.68v4.15c0,.92-.45,1.78-1.2,2.3H12.49c-3.44,0-6.2,2.88-6.01,6.35l.27,5.05c-3.59,4.68-5.57,10.48-5.57,16.39v5.57c-.74.82-1.18,1.91-1.18,3.1,0,2.57,2.09,4.66,4.66,4.66h69.86c2.57,0,4.66-2.09,4.66-4.66,0-1.19-.45-2.28-1.18-3.1v-5.57ZM75.04,87.53v4.04c-.17-.02-.34-.03-.52-.03h-3.2l.84-15.38c1.87,3.48,2.88,7.4,2.88,11.37h0ZM60.63,29.86c.1.22.15.47.15.72v5.62c0,1-.81,1.81-1.81,1.81h-1.76v-5.58l.91-.32c1.13-.39,2.01-1.22,2.5-2.26h0ZM50.75,47h-3.71c-.6,0-1.08-.49-1.08-1.09s.49-1.08,1.08-1.08h3.71c.6,0,1.08.49,1.08,1.08s-.49,1.09-1.08,1.09h0ZM57.74,44.67h-1.49c.42-1.19.7-2.43.86-3.71h1.88c.64,0,1.25-.13,1.81-.36v1.02c0,1.68-1.37,3.05-3.05,3.05h0ZM21.09,19.65c0-6.15,5-11.15,11.14-11.15h15.67c1.9,0,3.44,1.55,3.44,3.44,0,1.73,1.41,3.14,3.14,3.14h.17c1.9,0,3.44,1.54,3.44,3.44v9.46c0,.6-.38,1.13-.94,1.32l-3.11,1.08c-.13.04-.25-.05-.25-.18v-5.88c.02-4.29-3.99-8.03-9.62-6.22-2.83.91-6.33.91-9.16,0-5.57-1.79-9.65,1.89-9.63,6.22v5.88c0,.14-.13.22-.25.18l-3.11-1.08c-.56-.2-.94-.73-.94-1.32v-8.34ZM18.4,36.2v-5.62c0-.26.06-.5.15-.72.49,1.03,1.38,1.86,2.51,2.26l.91.32v5.58h-1.76c-1,0-1.81-.81-1.81-1.81h0ZM24.95,39.26c-.05-1.94-.02-4.01-.03-5.9.09,0,.18.01.27.01,1.76,0,3.15-1.43,3.15-3.15v-5.89c-.02-2.4,2.14-4.56,5.76-3.4,3.43,1.1,7.55,1.1,10.97,0,3.45-1.11,5.77.84,5.76,3.4v5.88c0,1.83,1.56,3.3,3.42,3.14v6.02c-.04,1.28-.25,2.53-.61,3.71-.73-.75-1.76-1.22-2.89-1.22h-3.71c-2.23,0-4.04,1.81-4.04,4.04s1.81,4.04,4.04,4.04h1.88c-2.73,2.13-5.84,3.25-9.25,3.3-7.47-.06-14.5-5.58-14.72-14h0ZM32.84,57.44v-2.59c2.14.89,4.42,1.34,6.83,1.36h.03c2.35-.04,4.57-.49,6.65-1.35v2.58c0,.81.17,1.59.48,2.31h-14.47c.31-.72.48-1.5.48-2.31h0ZM7.02,76.16l.23,4.3c.04.82.74,1.44,1.56,1.4.82-.04,1.44-.74,1.4-1.56l-.78-14.37c-.09-1.75,1.29-3.23,3.06-3.23h54.21c1.75,0,3.15,1.47,3.06,3.23l-1.39,25.61h-23.2c.28-1.69,1.04-3.28,2.22-4.58l.04-.05c4.48-5.01,3.14-12.84-2.65-16.13-1.48-.84-3.37.21-3.37,1.96v6.71c0,.31-.25.56-.56.56h-2.5c-.31,0-.56-.25-.56-.56v-6.71c0-1.75-1.88-2.8-3.37-1.96-5.8,3.3-7.12,11.13-2.65,16.14l.04.04c1.17,1.3,1.93,2.89,2.22,4.58H10.82l-.24-4.37c-.04-.82-.74-1.44-1.56-1.4-.82.04-1.44.74-1.4,1.56l.23,4.21h-3.2c-.17,0-.35.01-.52.03v-4.04c0-3.98,1.01-7.89,2.88-11.37h0ZM37.01,91.54c-.3-2.42-1.34-4.71-3.01-6.56l-.04-.04c-2.86-3.2-2.47-8.14.86-10.87v5.38c0,1.94,1.58,3.52,3.52,3.52h2.5c1.94,0,3.52-1.58,3.52-3.52v-5.38c3.31,2.71,3.73,7.65.85,10.87l-.03.04c-1.66,1.85-2.7,4.14-3.01,6.56h-5.17ZM74.52,97.91H4.66c-.94,0-1.7-.76-1.7-1.7s.76-1.7,1.7-1.7h69.86c.94,0,1.7.76,1.7,1.7s-.76,1.7-1.7,1.7h0Z"/>
      <path class="cls-1" d="M99.51,10.12c.82,0,1.48-.66,1.48-1.48v-2.86c0-3.19-2.59-5.78-5.78-5.78h-24.88c-3.19,0-5.78,2.59-5.78,5.78v12.44c0,3.19,2.59,5.78,5.78,5.78.57,0,1.03.46,1.03,1.03v7.7c0,1.11.72,2.06,1.79,2.35,1.08.3,2.18-.15,2.75-1.1l5.69-9.48c.18-.31.52-.5.89-.5h12.74c3.19,0,5.78-2.59,5.78-5.78v-2.66c0-.82-.66-1.48-1.48-1.48s-1.48.66-1.48,1.48v2.66c0,1.56-1.27,2.82-2.82,2.82h-12.74c-1.39,0-2.71.74-3.42,1.94l-4.73,7.88v-5.83c0-2.2-1.79-3.99-3.99-3.99-1.56,0-2.82-1.27-2.82-2.82V5.78c0-1.56,1.27-2.82,2.82-2.82h24.88c1.56,0,2.82,1.27,2.82,2.82v2.86c0,.82.66,1.48,1.48,1.48h0Z"/>
    </g>
  </g>
</svg>