<?xml version="1.0" encoding="UTF-8"?>
<svg id="Camada_2" data-name="Camada 2" xmlns="http://www.w3.org/2000/svg" viewBox="0 0 92.56 92.56">
  <defs>
    <style>
      .cls-1 {
        fill: white;
      }
    </style>
  </defs>
  <g id="Camada_1-2" data-name="Camada 1">
    <g>
      <path class="cls-1" d="M4.21,46.29c0-16.12,9.21-30.83,23.72-37.86,14.51-7.03,31.76-5.16,44.42,4.83h-6.4c-1.15.01-2.08.95-2.08,2.1s.93,2.09,2.08,2.1h11.9c.56,0,1.09-.22,1.49-.62s.62-.93.62-1.49V3.46c0-.56-.21-1.1-.61-1.5-.39-.4-.93-.62-1.49-.62s-1.1.23-1.49.62c-.4.4-.61.94-.61,1.5v7.12C56.68-5.14,28.64-3.12,12.03,15.16c-16.61,18.28-15.94,46.39,1.53,63.86.39.4.93.63,1.49.63.56,0,1.1-.22,1.5-.62.4-.4.62-.94.62-1.5,0-.56-.23-1.1-.63-1.49-7.92-7.87-12.36-18.59-12.32-29.75h0Z"/>
      <path class="cls-1" d="M27.9,84.15c-1.19-.58-2.38-1.23-3.51-1.92-.99-.61-2.29-.29-2.89.7-.6.99-.29,2.29.7,2.89,1.25.76,2.55,1.47,3.86,2.11,1.05.51,2.3.07,2.81-.97.51-1.04.07-2.3-.97-2.81h0Z"/>
      <path class="cls-1" d="M84.16,27.94c.51,1.05,1.76,1.48,2.81.98,1.05-.51,1.48-1.76.98-2.81-.63-1.31-1.34-2.61-2.11-3.87-.6-.99-1.9-1.31-2.89-.7-.48.29-.82.76-.95,1.3-.13.54-.04,1.11.25,1.59.69,1.14,1.34,2.32,1.91,3.51h0Z"/>
      <path class="cls-1" d="M51.28,88.07c-1.33.16-2.67.25-4,.28-1.14.04-2.04.99-2.02,2.13.01,1.14.93,2.06,2.07,2.08.02,0,.03,0,.05,0,1.45-.03,2.93-.14,4.39-.31,1.15-.14,1.98-1.18,1.84-2.34-.14-1.15-1.18-1.98-2.33-1.84h0Z"/>
      <path class="cls-1" d="M39.3,87.78c-1.31-.22-2.62-.5-3.91-.85-1.12-.3-2.28.37-2.58,1.49-.3,1.12.37,2.28,1.49,2.58,1.42.38,2.86.69,4.31.93,1.15.19,2.23-.58,2.42-1.73.19-1.15-.58-2.23-1.73-2.42h0Z"/>
      <path class="cls-1" d="M90.51,45.27c-1.16-.03-2.13.89-2.16,2.05-.03,1.33-.13,2.67-.29,4-.14,1.15.69,2.2,1.84,2.34.08,0,.17.01.25.01,1.06,0,1.96-.8,2.09-1.85.17-1.45.28-2.93.32-4.39.01-.56-.19-1.1-.58-1.5-.38-.4-.91-.64-1.47-.65h0Z"/>
      <path class="cls-1" d="M84.05,69.34c-.96-.65-2.27-.4-2.92.56-.75,1.1-1.56,2.18-2.41,3.2-.36.43-.54.99-.49,1.55.05.56.32,1.08.75,1.44.43.36.99.53,1.55.47.56-.06,1.07-.33,1.43-.77.93-1.13,1.82-2.31,2.65-3.52.31-.46.43-1.03.33-1.58-.1-.55-.42-1.03-.88-1.35h0Z"/>
      <path class="cls-1" d="M86.95,35.43c.34,1.28.62,2.6.84,3.91.17,1.01,1.04,1.76,2.07,1.76.12,0,.23-.01.35-.03.55-.09,1.04-.4,1.37-.85.32-.45.46-1.02.36-1.57-.24-1.45-.55-2.9-.93-4.31-.3-1.12-1.45-1.79-2.57-1.49-1.12.3-1.79,1.45-1.49,2.57h0Z"/>
      <path class="cls-1" d="M73.06,78.75c-1.03.85-2.11,1.66-3.2,2.4-.96.65-1.21,1.96-.56,2.92.65.96,1.96,1.21,2.92.56,1.21-.82,2.39-1.71,3.52-2.64.9-.74,1.02-2.07.28-2.96-.74-.9-2.07-1.02-2.96-.28h0Z"/>
      <path class="cls-1" d="M89,57.77c-1.11-.35-2.29.26-2.64,1.37-.4,1.26-.87,2.52-1.4,3.75-.23.51-.25,1.1-.04,1.63.2.53.61.95,1.13,1.17.52.22,1.11.23,1.63.01.52-.21.94-.63,1.15-1.15.58-1.35,1.1-2.74,1.54-4.13.17-.53.12-1.11-.13-1.6-.26-.49-.7-.87-1.23-1.04h0Z"/>
      <path class="cls-1" d="M62.84,84.98c-1.21.52-2.47.99-3.75,1.4-1.11.35-1.72,1.54-1.37,2.64.35,1.11,1.54,1.72,2.64,1.37,1.4-.45,2.79-.96,4.13-1.54,1.07-.46,1.56-1.69,1.11-2.76-.46-1.07-1.69-1.56-2.76-1.11h0Z"/>
      <path class="cls-1" d="M28.49,41.99c0-3.45-2.27-6.21-5.78-7.04-3.97-.94-8.06.99-9.87,4.64-.51,1.04-.09,2.3.95,2.81,1.04.52,2.3.1,2.82-.93.93-1.92,3.07-2.93,5.14-2.43.59.14,2.54.77,2.54,2.94s-2.53,3.89-5.22,5.68c-3.02,2.02-6.44,4.3-6.44,8.09,0,1.16.94,2.1,2.1,2.1h11.66c.56,0,1.1-.21,1.5-.61.4-.39.62-.93.62-1.49s-.23-1.1-.62-1.49c-.4-.4-.94-.61-1.5-.61h-8.34c.88-.84,2.13-1.67,3.35-2.48,3.32-2.22,7.09-4.73,7.09-9.18h0Z"/>
      <path class="cls-1" d="M48.39,48.92c0-1.16-.94-2.1-2.1-2.1h-1.71v-11.18c0-.89-.56-1.69-1.41-1.98-.84-.3-1.78-.03-2.34.67l-10.65,13.28c-.51.63-.6,1.5-.25,2.23.35.73,1.09,1.19,1.9,1.19h8.55v5.92c0,.56.21,1.1.61,1.5.39.4.93.62,1.49.62s1.1-.22,1.49-.62c.4-.4.61-.94.61-1.5v-5.92h1.71c.56,0,1.09-.22,1.49-.62s.62-.93.62-1.49h0ZM40.37,46.81h-4.16l4.16-5.19v5.19Z"/>
      <path class="cls-1" d="M59.16,32.39c-.55-.11-1.12,0-1.58.31-.46.31-.79.79-.89,1.34l-4.73,23.67c-.23,1.14.51,2.25,1.65,2.48.14.03.28.04.41.04,1,0,1.86-.71,2.06-1.69l4.73-23.67c.11-.55,0-1.11-.31-1.58-.31-.46-.79-.79-1.34-.9h0Z"/>
      <path class="cls-1" d="M69.95,57.86c.85,0,1.62-.51,1.94-1.3l7.89-18.94c.27-.65.2-1.39-.19-1.98-.39-.59-1.05-.94-1.75-.94h-10.65c-1.15.01-2.08.95-2.08,2.1s.93,2.09,2.08,2.1h7.5l-6.68,16.02c-.27.65-.2,1.39.19,1.98.39.58,1.05.94,1.75.94h0Z"/>
    </g>
  </g>
</svg>