<?xml version="1.0" encoding="UTF-8"?>
<svg id="Camada_2" data-name="Camada 2" xmlns="http://www.w3.org/2000/svg" viewBox="0 0 101.11 101.34">
  <defs>
    <style>
      .cls-1 {
        fill: white;
      }
    </style>
  </defs>
  <g id="Camada_1-2" data-name="Camada 1">
    <g>
      <path class="cls-1" d="M66.7,70.69c5.17,0,9.37-4.2,9.37-9.37-.51-12.43-18.23-12.43-18.74,0,0,5.17,4.2,9.37,9.37,9.37h0ZM66.7,54.91c3.53,0,6.41,2.88,6.41,6.41-.35,8.5-12.47,8.5-12.82,0,0-3.54,2.88-6.41,6.41-6.41h0Z"/>
      <g>
        <rect class="cls-1" x="68.51" y="45.88" width="7.1" height="2.96"/>
        <path class="cls-1" d="M92.17,73.55h-1.82V28.86l3.57,2.61,1.75-2.39L55.91,0h-10.47l-19.7,14.41,1.75,2.39L46.41,2.96h8.53l32.45,23.74v46.86h-5.41v-29.16c0-2.45-1.99-4.44-4.44-4.44h-11.56v-17.26c0-2.45-1.99-4.44-4.44-4.44h-21.74c-2.45,0-4.44,1.99-4.44,4.44v20.73h-11.76c-2.45,0-4.44,1.99-4.44,4.44v15.87c-1.79-.1-3.65.05-5.35.4V26.8l11.28-8.25-1.75-2.39L5.69,29.08l1.75,2.39,3.43-2.5v36.04c-5.55,2.15-8.79,6.02-10.86,11.51h14.67l3.17,6.03-3.17,6.03H0l.89,2.07c5.74,13.88,27.47,14.34,33.96.89h40.76s0-2.96,0-2.96h-42.67c-4.15,11.75-21.63,13.28-28.23,2.96h11.75l4.72-8.99-4.72-8.99H4.71c6.6-10.33,24.08-8.79,28.23,2.96h59.23c3.32,0,6.03,2.7,6.03,6.03s-2.7,6.03-6.03,6.03h-13.61v2.96h13.61c11.92-.49,11.92-17.48,0-17.97h0ZM79.03,44.4v29.16h-24.66s0-29.16,0-29.16c0-.82.66-1.48,1.48-1.48h21.7c.82,0,1.48.66,1.48,1.48h0ZM39.8,21.22h21.74c.82,0,1.48.66,1.48,1.48v11.48h-24.7v-11.48c0-.82.66-1.48,1.48-1.48h0ZM38.32,37.14h24.7v2.82h-7.18c-2.45,0-4.44,1.99-4.44,4.44v29.16h-4.63v-25.69c0-2.45-1.99-4.44-4.44-4.44h-4.02v-6.29ZM23.61,46.39h18.74c.82,0,1.48.66,1.48,1.48v7.4h-21.7v-7.4c0-.82.66-1.48,1.48-1.48h0ZM22.13,64.09v-5.87h21.7v15.33h-8.97c-2.48-4.95-7.12-8.36-12.73-9.46h0Z"/>
      </g>
      <rect class="cls-1" x="41.3" y="25.15" width="2.96" height="5.92"/>
      <rect class="cls-1" x="25.09" y="49.35" width="5.92" height="2.96"/>
      <rect class="cls-1" x="34.95" y="49.35" width="5.92" height="2.96"/>
      <rect class="cls-1" x="46.53" y="81.06" width="2.96" height="2.96"/>
      <rect class="cls-1" x="52.44" y="81.06" width="2.96" height="2.96"/>
    </g>
  </g>
</svg>