<?xml version="1.0" encoding="UTF-8"?>
<svg id="Camada_2" data-name="Camada 2" xmlns="http://www.w3.org/2000/svg" viewBox="0 0 78.4 100.99">
  <defs>
    <style>
      .cls-1 {
        fill: white;
      }
    </style>
  </defs>
  <g id="Camada_1-2" data-name="Camada 1">
    <g>
      <path class="cls-1" d="M78.4,89.15V0H7.4C3.32,0,0,3.32,0,7.4v7.4h2.96v-7.4c0-2.45,1.99-4.44,4.44-4.44h1.48v83.24h-1.48c-1.66,0-3.2.55-4.44,1.48V17.75H0v75.87c.01,4.07,3.33,7.37,7.4,7.37h56.21v-2.96H7.4c-2.45,0-4.44-1.99-4.44-4.44s1.99-4.44,4.44-4.44h65.09v2.96l-63.61.02v2.96s63.61-.02,63.61-.02v2.96h-5.92v2.96h11.83v-2.96h-2.96v-8.88h2.96ZM11.83,86.19V2.96h63.61v83.24H11.83Z"/>
      <rect class="cls-1" x="63.61" y="5.92" width="2.96" height="2.96"/>
      <rect class="cls-1" x="69.53" y="5.92" width="2.96" height="2.96"/>
      <path class="cls-1" d="M64.98,30.15l-1.55.49c-1.08.34-2.28-.21-2.71-1.27-.44-1.05.01-2.29,1.02-2.81l1.44-.75-.88-1.36c-1.71-2.65-4.01-4.95-6.66-6.66l-1.36-.88-.75,1.44c-.52,1.01-1.76,1.46-2.81,1.02-1.05-.44-1.61-1.63-1.27-2.71l.49-1.55-1.59-.34c-3.08-.67-6.33-.67-9.42,0l-1.59.34.49,1.55c.34,1.08-.22,2.28-1.27,2.71-1.05.44-2.29-.01-2.81-1.02l-.75-1.44-1.36.88c-2.65,1.71-4.95,4.01-6.66,6.66l-.88,1.36,1.44.75c1.01.52,1.46,1.76,1.02,2.81-.44,1.05-1.63,1.61-2.71,1.27l-1.55-.49-.34,1.59c-.33,1.54-.5,3.13-.5,4.71s.17,3.17.5,4.71l.34,1.59,1.55-.49c1.09-.34,2.28.22,2.71,1.27.44,1.05-.01,2.29-1.02,2.81l-1.44.75.88,1.36c1.71,2.65,4.01,4.95,6.66,6.66l1.36.88.75-1.44c.52-1.01,1.76-1.46,2.81-1.02,1.05.44,1.61,1.63,1.27,2.71l-.49,1.55,1.59.34c1.54.33,3.13.5,4.71.5s3.17-.17,4.71-.5l1.59-.34-.49-1.55c-.34-1.08.22-2.28,1.27-2.71,1.05-.44,2.29.01,2.81,1.02l.75,1.44,1.36-.88c2.65-1.71,4.95-4.01,6.66-6.66l.88-1.36-1.44-.75c-1.01-.53-1.46-1.76-1.02-2.81.44-1.05,1.63-1.61,2.71-1.27l1.55.49.34-1.59c.33-1.54.5-3.13.5-4.71s-.17-3.17-.5-4.71l-.34-1.59ZM62.68,39.18c-2.01.03-3.87,1.24-4.69,3.2-.81,1.97-.35,4.13,1.05,5.58-1.1,1.46-2.41,2.78-3.88,3.88-1.44-1.4-3.61-1.86-5.58-1.05-1.97.81-3.17,2.67-3.2,4.69-1.81.26-3.67.26-5.49,0-.03-2.01-1.24-3.87-3.2-4.69-1.97-.81-4.13-.35-5.58,1.05-1.46-1.1-2.78-2.41-3.88-3.88,1.4-1.44,1.86-3.61,1.05-5.58-.81-1.97-2.67-3.17-4.69-3.2-.13-.91-.2-1.83-.2-2.74s.07-1.84.2-2.74c2.01-.03,3.87-1.24,4.69-3.2.81-1.97.35-4.13-1.05-5.58,1.1-1.46,2.41-2.78,3.88-3.88,1.44,1.4,3.61,1.86,5.58,1.05,1.97-.81,3.17-2.67,3.2-4.69,1.81-.26,3.67-.26,5.49,0,.03,2.01,1.24,3.87,3.2,4.69,1.97.81,4.13.35,5.58-1.05,1.46,1.1,2.78,2.41,3.88,3.88-1.4,1.44-1.86,3.61-1.05,5.58.81,1.97,2.67,3.17,4.69,3.2.13.91.2,1.83.2,2.74s-.07,1.83-.2,2.74h0Z"/>
      <path class="cls-1" d="M43.64,26.09c-5.71,0-10.36,4.65-10.36,10.35s4.65,10.36,10.36,10.36,10.36-4.65,10.36-10.36-4.65-10.35-10.36-10.35h0ZM43.64,43.84c-4.08,0-7.4-3.32-7.4-7.4s3.32-7.4,7.4-7.4,7.4,3.32,7.4,7.4-3.32,7.4-7.4,7.4h0Z"/>
      <rect class="cls-1" x="31.07" y="66.03" width="11.09" height="2.96"/>
      <rect class="cls-1" x="35.5" y="71.94" width="16.27" height="2.96"/>
      <rect class="cls-1" x="45.12" y="66.03" width="11.09" height="2.96"/>
    </g>
  </g>
</svg>