<?xml version="1.0" encoding="UTF-8"?>
<svg id="Camada_2" data-name="Camada 2" xmlns="http://www.w3.org/2000/svg" viewBox="0 0 100.99 73.31">
  <defs>
    <style>
      .cls-1 {
        fill: white;
      }
    </style>
  </defs>
  <g id="Camada_1-2" data-name="Camada 1">
    <path class="cls-1" d="M27.92,7.86c0,.87-.71,1.58-1.58,1.58h-14.37c-.87,0-1.58-.71-1.58-1.58s.71-1.58,1.58-1.58h14.37c.87,0,1.58.71,1.58,1.58h0ZM56.95,7.86c0,2.16-1.76,3.92-3.93,3.92s-3.92-1.76-3.92-3.92,1.76-3.93,3.92-3.93c2.16,0,3.93,1.76,3.93,3.93h0ZM53.79,7.86c0-.42-.35-.77-.77-.77s-.76.35-.76.77.34.76.76.76.77-.34.77-.76h0ZM45.56,7.86c0,2.16-1.76,3.92-3.92,3.92s-3.93-1.76-3.93-3.92,1.76-3.93,3.93-3.93c2.16,0,3.92,1.76,3.92,3.93h0ZM42.4,7.86c0-.42-.34-.77-.76-.77s-.77.35-.77.77.35.76.77.76.76-.34.76-.76h0ZM50.78,36.59c0,9.44-7.68,17.12-17.12,17.12s-17.12-7.68-17.12-17.12,7.68-17.12,17.12-17.12,17.12,7.68,17.12,17.12h0ZM47.62,36.59c0-7.7-6.26-13.96-13.96-13.96s-13.96,6.26-13.96,13.96,6.26,13.96,13.96,13.96,13.96-6.26,13.96-13.96h0ZM44.7,32.79c.03.07.05.14.07.21.36,1.13.56,2.33.56,3.58,0,6.44-5.23,11.67-11.67,11.67s-11.67-5.23-11.67-11.67c0-.64.05-1.26.15-1.87,0-.02,0-.04,0-.06,0,0,0-.01,0-.02.93-5.51,5.73-9.72,11.5-9.72,5.11,0,9.46,3.3,11.04,7.87h0ZM25.68,33.67c2.97.28,5.49-.37,8.13-1.06,2.13-.55,4.32-1.12,6.69-1.11-1.55-2.08-4.03-3.43-6.82-3.43-3.67,0-6.8,2.33-7.99,5.59h0ZM41.98,34.77c-2.51-.36-4.79.23-7.38.91-2.24.58-4.7,1.22-7.52,1.22-.62,0-1.25-.03-1.91-.1.11,4.6,3.88,8.3,8.5,8.3s8.51-3.82,8.51-8.51c0-.62-.07-1.23-.2-1.82h0ZM83.44,36.43c.36.48.42,1.12.15,1.66-.27.54-.81.88-1.41.88h-12.47c-.87,0-1.58-.71-1.58-1.58v-11.74c0-.87.71-1.58,1.58-1.58h6.68c.15,0,.29.02.36.03.4.07.76.29,1,.61.11.14.17.28.2.34.01.02.01.03.02.05l3.99,8.84c.41.9.9,1.74,1.47,2.5h0ZM79.35,35.8c-.09-.19-.18-.38-.27-.57l-3.62-8.01h-4.18v8.58h8.07ZM80.69,61.15h-.01c-.87,0-1.57.71-1.57,1.58s.71,1.58,1.59,1.58,1.58-.71,1.58-1.58-.71-1.58-1.58-1.58h0ZM100.99,62.73c0,2.51-2.04,4.55-4.55,4.55h-6.22c-1.7,3.56-5.34,6.03-9.55,6.03s-7.84-2.47-9.54-6.03H29.85c-1.7,3.56-5.34,6.03-9.55,6.03s-7.84-2.47-9.54-6.03h-6.22c-2.51,0-4.55-2.04-4.55-4.55,0-2,1.3-3.7,3.11-4.31V5.44C3.11,2.44,5.55,0,8.55,0h50.23c3,0,5.44,2.44,5.44,5.44v11.56h12.16c3.51,0,6.58,1.98,8.03,5.18l3.99,8.84c.54,1.19,1.32,2.03,2.48,2.65l2.35,1.26c2.92,1.56,4.67,4.47,4.65,7.79v2.23s0,.02,0,.02c0,0,0,.01,0,.02l-.02,7.41v.03l-.02,5.97c1.83.59,3.15,2.3,3.15,4.32h0ZM94.71,46.56h-3.55v4.28h3.53v-4.28ZM6.27,12.56h54.8v-7.11c0-1.26-1.03-2.28-2.28-2.28H8.55c-1.26,0-2.28,1.02-2.28,2.28v7.11ZM9.83,64.12c-.06-.46-.09-.92-.09-1.39s.03-.93.09-1.38h-5.28c-.75,0-1.39.63-1.39,1.38s.62,1.39,1.39,1.39h5.29ZM27.73,62.73c0-4.09-3.33-7.41-7.42-7.41s-7.41,3.33-7.41,7.41,3.33,7.42,7.41,7.42,7.42-3.33,7.42-7.42h0ZM29.86,58.19h31.21V15.72H6.27v42.47h4.5c1.7-3.56,5.34-6.03,9.54-6.03s7.84,2.47,9.55,6.03h0ZM70.21,64.12c-.06-.46-.1-.92-.1-1.39s.03-.93.09-1.38H30.79c.06.45.09.92.09,1.38s-.03.93-.09,1.39h39.42ZM88.1,62.73c0-4.09-3.33-7.41-7.42-7.41s-7.41,3.33-7.41,7.41,3.33,7.42,7.41,7.42,7.42-3.33,7.42-7.42h0ZM90.23,58.19h4.45v-4.19s-3.98,0-3.98,0c-1.48,0-2.69-1.21-2.69-2.69v-5.23c0-1.48,1.21-2.69,2.69-2.69h4.02v-.68c.01-2.16-1.08-3.98-2.98-5l-2.35-1.26c-1.78-.95-3.05-2.3-3.87-4.14l-3.99-8.84c-.94-2.08-2.86-3.32-5.15-3.32h-12.16v38.02h6.92c1.7-3.56,5.34-6.03,9.54-6.03,4.2,0,7.84,2.46,9.55,6.03h0ZM97.83,62.73c0-.75-.64-1.38-1.39-1.38h-5.28c.06.45.09.92.09,1.38s-.03.93-.1,1.39h5.28c.77,0,1.39-.62,1.39-1.39h0ZM20.32,61.15h-.01c-.87,0-1.57.71-1.57,1.58s.71,1.58,1.59,1.58,1.58-.71,1.58-1.58-.71-1.58-1.58-1.58h0Z"/>
  </g>
</svg>