<?xml version="1.0" encoding="UTF-8"?>
<svg id="Camada_2" data-name="Camada 2" xmlns="http://www.w3.org/2000/svg" viewBox="0 0 100.63 100.99">
  <defs>
    <style>
      .cls-1 {
        fill: white;
      }
    </style>
  </defs>
  <g id="Camada_1-2" data-name="Camada 1">
    <g>
      <path class="cls-1" d="M50.14,12.83c1.1,0,1.99-.89,1.99-1.99V1.99c0-1.1-.89-1.99-1.99-1.99s-1.99.89-1.99,1.99v8.86c0,1.1.89,1.99,1.99,1.99h0Z"/>
      <path class="cls-1" d="M98.7,68.24l-3.51-3.5c-1.25-1.25-2.91-1.93-4.68-1.93-1.13,0-2.22.28-3.19.81l-6.61-6.61.32-.32c2.68-2.69,2.68-7.06,0-9.73-.96-.96-2.15-1.6-3.46-1.87.18-.62.27-1.27.27-1.93,0-1.85-.72-3.58-2.01-4.87-.96-.96-2.16-1.6-3.46-1.87.18-.62.27-1.27.27-1.93,0-1.85-.72-3.58-2.02-4.87-.98-.98-2.19-1.6-3.45-1.86.68-2.34.1-4.97-1.74-6.81-1.53-1.52-3.61-2.18-5.61-1.97l-13.1-2.48c-2-.38-4.49-.63-6.07.81-.1.09-.2.19-.3.31-2.44-.89-5.29-.36-7.25,1.59-1.3,1.3-2.01,3.03-2.01,4.87,0,.66.09,1.31.27,1.93-1.3.27-2.5.91-3.45,1.87-1.3,1.29-2.02,3.02-2.02,4.86,0,.67.09,1.32.27,1.94-1.3.27-2.5.91-3.46,1.86-1.3,1.3-2.02,3.03-2.02,4.87,0,1.41.42,2.76,1.2,3.89-.99.33-1.89.89-2.65,1.65-2.68,2.68-2.69,7.05,0,9.74l.32.32-6.61,6.6c-2.46-1.16-5.49-.72-7.51,1.3l-3.51,3.5c-1.25,1.25-1.94,2.91-1.94,4.69s.69,3.44,1.94,4.69l4.38,4.38c.78.78,2.03.77,2.81,0,.78-.78.77-2.03,0-2.81l-4.38-4.38c-.5-.5-.77-1.16-.77-1.87s.27-1.38.77-1.87l3.51-3.5c.88-.88,2.22-1.01,3.24-.4.07.11.15.21.25.31.17.17.36.3.57.4l20.14,20.11c.1.21.23.4.4.58.17.17.36.3.56.39.43.48.66,1.1.66,1.75,0,.71-.27,1.38-.77,1.87l-3.51,3.5c-1.04,1.03-2.72,1.03-3.76,0l-4.38-4.38c-.78-.78-2.03-.78-2.81,0-.78.78-.78,2.03,0,2.81l4.39,4.39c1.29,1.29,2.99,1.93,4.68,1.93s3.39-.64,4.69-1.93l3.51-3.51c1.25-1.25,1.94-2.91,1.94-4.69,0-1.27-.35-2.47-1.01-3.52l7.44-7.43s.02-.02.02-.02c.85-.88,3.23-.72,5.52-.56,1.63.11,3.45.24,5.23.03l8.15,8.14c-.53.96-.81,2.05-.81,3.18,0,1.77.69,3.44,1.94,4.68l3.51,3.51c1.25,1.25,2.91,1.93,4.68,1.93s3.44-.69,4.68-1.93l21.29-21.26c1.25-1.25,1.94-2.91,1.94-4.69s-.69-3.44-1.94-4.69h0ZM45.98,20.4l8.62,1.63-5.16,5.16c-.8-.38-1.89-1.1-3.09-2.25-1.64-1.57-2.82-3.38-2.92-4.51h0c0-.08,0-.15,0-.2.26-.06.95-.13,2.56.17h0ZM35.91,22.02c1.01-1.01,2.57-1.12,3.71-.35.64,2.7,2.95,5.15,3.99,6.14.77.73,3.23,2.94,5.72,3.55.34.48.52,1.06.52,1.67,0,.78-.3,1.51-.85,2.06-.55.55-1.28.85-2.06.85s-1.52-.3-2.06-.85h0s0,0,0,0l-8.96-8.94c-.55-.55-.85-1.28-.85-2.06s.3-1.51.85-2.06h0ZM30.72,30.69c.55-.55,1.28-.85,2.06-.85s1.52.3,2.07.85l7.21,7.2c1.14,1.14,1.14,2.99,0,4.12-.55.55-1.29.85-2.07.85s-1.52-.3-2.07-.85l-5.47-5.47s-.02-.02-.03-.03l-1.71-1.71c-.55-.55-.85-1.28-.85-2.06,0-.78.3-1.51.85-2.06h0ZM25.52,39.36c.55-.55,1.28-.85,2.06-.85s1.51.3,2.05.83l5.49,5.49c.55.55.85,1.28.85,2.06s-.3,1.51-.85,2.06c-.55.55-1.28.85-2.06.85s-1.52-.3-2.07-.85l-1.99-1.99s0,0,0,0l-3.48-3.48c-.55-.55-.85-1.28-.85-2.06s.3-1.51.85-2.06h0ZM22.06,49.77c.55-.55,1.28-.85,2.07-.85s1.52.3,2.07.85l1.99,1.99c.55.54.85,1.27.85,2.06s-.3,1.51-.85,2.06c-.55.55-1.28.85-2.06.85s-1.52-.3-2.07-.85l-.25-.25s0,0,0-.01c0,0,0,0-.01-.01l-1.72-1.71c-1.14-1.14-1.14-2.99,0-4.12h0ZM62.54,72.34c-.78-.78-2.03-.78-2.81,0l-1.77,1.76c-1.68,1.68-4.72,1.47-7.66,1.26-3.2-.22-6.5-.45-8.64,1.74l-7.32,7.31-18.3-18.27,6.48-6.46c1.07.66,2.31,1.01,3.6,1.01,1.85,0,3.58-.72,4.87-2.01,1.3-1.3,2.02-3.03,2.02-4.87,0-.02,0-.03,0-.05.02,0,.03,0,.05,0,1.84,0,3.57-.71,4.87-2.01,1.3-1.3,2.02-3.03,2.02-4.87,0-.02,0-.03,0-.05.02,0,.03,0,.05,0,1.84,0,3.57-.71,4.88-2.01,1.35-1.36,2.02-3.14,2.01-4.92.02,0,.04,0,.05,0,1.85,0,3.58-.72,4.87-2.01,1.3-1.3,2.01-3.03,2.01-4.87,0-1.29-.35-2.52-1-3.59l5.68-5.67c.42-.42.94-.69,1.49-.8.06,0,.12-.02.18-.03.88-.12,1.8.15,2.47.82,1.14,1.14,1.14,2.99,0,4.12l-1.73,1.72s-.01.01-.02.02l-1.99,1.99c-.78.78-.78,2.03,0,2.81.78.78,2.03.78,2.81,0l1.74-1.73s0,0,0,0l.26-.26c1.14-1.13,2.98-1.13,4.12.01.55.54.85,1.27.85,2.06s-.3,1.51-.85,2.06l-1.74,1.74h0s-1.99,1.98-1.99,1.98c-.78.77-.78,2.03,0,2.81.77.78,2.03.78,2.81,0l2-1.99c.55-.55,1.28-.85,2.06-.85s1.52.3,2.07.85c.55.55.85,1.28.85,2.06s-.3,1.51-.85,2.06l-3.47,3.47c-.78.78-.78,2.03,0,2.81.39.39.9.58,1.4.58s1.02-.19,1.41-.58l1.7-1.7s.02-.02.03-.03c.55-.55,1.28-.85,2.06-.85s1.52.3,2.06.85c1.14,1.13,1.13,2.98,0,4.12l-1.73,1.73h0s0,0,0,0l-2.74,2.74c-.78.78-.78,2.03,0,2.81.39.39.9.58,1.41.58s1.02-.19,1.4-.58l1.34-1.34,6.43,6.42-18.3,18.27-6.56-6.55c.46-.29.89-.64,1.3-1.05l1.77-1.76c.78-.77.78-2.03,0-2.81h0ZM95.89,74.8l-21.29,21.27c-.5.5-1.16.77-1.88.77s-1.38-.27-1.88-.77l-3.51-3.51c-.5-.5-.77-1.16-.77-1.87s.27-1.37.77-1.87l21.29-21.26c.5-.5,1.17-.77,1.88-.77s1.38.27,1.88.77l3.51,3.5c.5.5.77,1.16.77,1.87s-.27,1.38-.77,1.87h0Z"/>
      <path class="cls-1" d="M23.76,11.16c.39.39.89.58,1.4.58s1.02-.19,1.41-.58c.77-.78.77-2.04,0-2.81l-7.24-7.22c-.78-.77-2.03-.77-2.81,0s-.77,2.03,0,2.81l7.24,7.22Z"/>
      <path class="cls-1" d="M75.12,11.74c.51,0,1.02-.19,1.4-.58l7.23-7.22c.78-.78.78-2.03,0-2.81-.77-.78-2.03-.78-2.81,0l-7.23,7.22c-.78.77-.78,2.03,0,2.81.39.39.9.58,1.41.58h0Z"/>
      <path class="cls-1" d="M12.21,85.45c-.77.78-.76,2.04.02,2.81h0c.39.38.89.57,1.39.57s1.03-.2,1.42-.59c.77-.78.76-2.04-.03-2.81-.78-.77-2.04-.76-2.81.02h0Z"/>
      <path class="cls-1" d="M67.4,69.48c.3,0,.61-.07.9-.21.98-.49,1.37-1.69.88-2.67-.49-.98-1.69-1.37-2.67-.88h-.01c-.98.5-1.37,1.69-.87,2.67.35.69,1.05,1.09,1.78,1.09h0Z"/>
    </g>
  </g>
</svg>