<?xml version="1.0" encoding="UTF-8"?>
<svg id="Camada_1" data-name="Camada 1" xmlns="http://www.w3.org/2000/svg" viewBox="0 0 1020 840">
  <defs>
    <style>
      .cls-1 {
        fill: #fff;
      }
    </style>
  </defs>
  <g>
    <g>
      <polygon class="cls-1" points="658.07 138.05 510 99.34 361.93 138.05 510.25 189.9 658.07 138.05"/>
      <path class="cls-1" d="M497.3,207.55v73.78c-38.61-1.25-76.62-7.31-110.54-17.93-7.86-2.46-16.42-5.47-24.83-9.14v-94.33l135.37,47.62Z"/>
      <path class="cls-1" d="M658.06,159.35v96.34c-1.36.56-2.74,1.1-4.13,1.64-39.43,15.14-84.95,23.04-130.73,24.13v-73.89l134.86-48.21Z"/>
      <path class="cls-1" d="M422.38,367.36c25.03,4.85,49.99,7.7,74.93,8.53v50.58l-.25,38-135.12-57.34v-56.58c19.28,7.66,39.55,12.75,60.44,16.81Z"/>
      <path class="cls-1" d="M607.26,366.48c17.62-3.61,34.53-8.07,50.8-14.35v55.23l-134.86,57.11v-88.44c28.01-.63,56.01-3.82,84.05-9.55Z"/>
    </g>
    <g>
      <path class="cls-1" d="M739.56,278.19c-.07,18.1-23.11,34.22-37.51,42.41-27.08,15.4-55.81,24.08-86.53,30.38-66.87,13.69-133.52,13.97-200.58.96-35.57-6.9-69.45-16.57-100.19-35.45-14.04-8.62-27.95-19.34-33.13-35.21-2.55-7.81-.41-18.19-.63-26.61,16.31,26.5,48.25,40.51,77.67,50.72,100.74,34.94,249.88,34.2,345.14-16.58,15.2-8.11,27.48-18.62,35.86-34.37l-.09,23.77Z"/>
      <path class="cls-1" d="M729.4,254.37c-14.26,15.01-31.92,24.71-51.82,32.32-93.07,35.64-211.21,36.07-306.59,8.27-28.37-8.27-88.22-30.35-90.39-64.98-1.51-24.21,28.22-41.89,50.33-50.56v11.92c-9,4.29-17.11,9.38-24.21,16.48-7.5,7.48-8.65,18.09-2.22,26.9,15.39,21.13,46.81,34.03,71.81,41.86,88.55,27.73,202.85,26.81,289.85-6.6,18.04-6.92,34.55-15.93,47.15-29.79,8.85-9.74,8.71-22.31-.32-31.67-8.73-9.06-17.47-13.03-23.92-15.8v-11.81c14.87,5.81,28.9,13.32,39.52,24.38,14.06,14.65,14.7,34.48.81,49.09Z"/>
    </g>
  </g>
  <g>
    <g>
      <path class="cls-1" d="M96.53,535.97v98.27h-23.28v-98.27h23.28Z"/>
      <path class="cls-1" d="M111.77,634.24v-73.74h22.36v13.45h.79c1.32-4.88,3.51-8.5,6.56-10.85,3.06-2.35,6.61-3.53,10.65-3.53,1.06,0,2.17.07,3.33.2,1.16.13,2.23.33,3.2.59v20.05c-1.1-.4-2.54-.69-4.32-.89s-3.37-.3-4.78-.3c-2.81,0-5.34.63-7.58,1.88s-4,2.98-5.28,5.18c-1.28,2.2-1.91,4.77-1.91,7.72v40.23h-23.02Z"/>
      <path class="cls-1" d="M180.3,551.86c-3.25,0-6.05-1.09-8.38-3.26-2.33-2.18-3.5-4.78-3.5-7.82s1.16-5.69,3.5-7.85c2.33-2.15,5.12-3.23,8.38-3.23s6.11,1.08,8.44,3.23c2.33,2.15,3.5,4.79,3.5,7.91s-1.17,5.63-3.5,7.78c-2.33,2.15-5.14,3.23-8.44,3.23ZM168.82,634.24v-73.74h23.02v73.74h-23.02Z"/>
      <path class="cls-1" d="M238.14,635.62c-6.29,0-11.85-.89-16.69-2.67-4.84-1.78-8.77-4.35-11.81-7.72-3.03-3.36-4.99-7.4-5.87-12.1l21.37-3.36c.92,3.21,2.48,5.63,4.68,7.26,2.2,1.63,5.25,2.44,9.17,2.44,3.21,0,5.74-.56,7.58-1.68,1.85-1.12,2.77-2.61,2.77-4.45,0-1.71-.74-3.09-2.21-4.12-1.47-1.03-3.75-1.86-6.83-2.47l-12.86-2.51c-7.3-1.41-12.76-3.88-16.39-7.42-3.63-3.54-5.44-8.15-5.44-13.82,0-4.92,1.33-9.12,3.99-12.6,2.66-3.47,6.42-6.14,11.28-8.01,4.86-1.87,10.59-2.8,17.18-2.8,6.16,0,11.51.82,16.06,2.47s8.22,4,11.01,7.06c2.79,3.06,4.61,6.69,5.44,10.92l-20.31,3.23c-.66-2.46-2.01-4.39-4.06-5.77-2.04-1.38-4.63-2.08-7.75-2.08-2.77,0-5.11.56-7.02,1.68-1.91,1.12-2.87,2.63-2.87,4.52,0,1.5.59,2.8,1.78,3.92s3.36,1.99,6.53,2.61l14.11,2.64c7.3,1.41,12.74,3.74,16.32,6.99,3.58,3.25,5.38,7.56,5.38,12.93,0,5.06-1.48,9.45-4.45,13.19-2.97,3.74-7.05,6.63-12.23,8.67-5.19,2.05-11.15,3.07-17.87,3.07Z"/>
      <path class="cls-1" d="M307.52,592.16v42.08h-23.02v-98.27h22.56v43.13h-1.45c1.8-5.85,4.63-10.56,8.48-14.15,3.85-3.58,9.02-5.38,15.53-5.38,5.14,0,9.63,1.14,13.45,3.43,3.83,2.29,6.79,5.52,8.9,9.7,2.11,4.18,3.17,9.04,3.17,14.58v46.96h-23.02v-42.47c0-4.13-1.06-7.38-3.17-9.73-2.11-2.35-5.06-3.53-8.84-3.53-2.46,0-4.65.54-6.56,1.62-1.91,1.08-3.4,2.63-4.45,4.65-1.06,2.02-1.58,4.48-1.58,7.39Z"/>
      <path class="cls-1" d="M399.92,634.24v-98.27h23.28v79.28h41.09v18.99h-64.37Z"/>
      <path class="cls-1" d="M496.87,635.56c-4.71,0-8.89-.8-12.56-2.41-3.67-1.6-6.54-4.02-8.61-7.26-2.07-3.23-3.1-7.27-3.1-12.1,0-4.09.71-7.54,2.14-10.36,1.43-2.81,3.42-5.1,5.97-6.86,2.55-1.76,5.47-3.1,8.77-4.02,3.3-.92,6.82-1.54,10.55-1.85,4.18-.35,7.54-.74,10.09-1.15,2.55-.42,4.42-1.04,5.61-1.88,1.19-.83,1.78-2,1.78-3.5v-.26c0-1.72-.4-3.17-1.19-4.35-.79-1.19-1.94-2.09-3.43-2.7-1.5-.62-3.3-.92-5.41-.92s-3.99.31-5.64.92c-1.65.62-3,1.5-4.06,2.64-1.06,1.14-1.8,2.48-2.24,4.02l-20.84-2.7c.97-4.22,2.87-7.93,5.7-11.11,2.84-3.19,6.55-5.67,11.15-7.45,4.59-1.78,9.97-2.67,16.13-2.67,4.57,0,8.85.54,12.83,1.62,3.98,1.08,7.46,2.66,10.45,4.75,2.99,2.09,5.32,4.66,6.99,7.72,1.67,3.06,2.51,6.56,2.51,10.52v50.06h-21.63v-10.35h-.59c-1.32,2.55-3,4.68-5.05,6.4-2.04,1.72-4.42,3.02-7.12,3.92-2.7.9-5.77,1.35-9.2,1.35ZM503.87,620.32c2.59,0,4.93-.53,7.02-1.58,2.09-1.05,3.75-2.51,4.98-4.35,1.23-1.85,1.85-3.98,1.85-6.4v-7.06c-.66.35-1.48.68-2.47.99-.99.31-2.08.58-3.26.82-1.19.24-2.37.46-3.56.66-1.19.2-2.33.39-3.43.56-2.24.31-4.16.84-5.74,1.58-1.58.75-2.79,1.72-3.63,2.9-.84,1.19-1.25,2.62-1.25,4.29s.42,3,1.25,4.12c.83,1.12,1.96,1.98,3.36,2.57,1.41.59,3.03.89,4.88.89Z"/>
      <path class="cls-1" d="M581.3,635.16c-5.14,0-9.64-1.14-13.49-3.43-3.85-2.29-6.83-5.52-8.94-9.69-2.11-4.18-3.17-9.04-3.17-14.58v-46.96h23.02v42.47c0,4.13,1.07,7.38,3.2,9.73,2.13,2.35,5.07,3.53,8.8,3.53,2.55,0,4.76-.54,6.63-1.62,1.87-1.08,3.33-2.64,4.39-4.68,1.06-2.04,1.58-4.5,1.58-7.35v-42.08h23.02v73.74h-21.63l-.4-18.6h.99c-1.85,5.89-4.71,10.62-8.57,14.18-3.87,3.56-9.01,5.34-15.43,5.34Z"/>
      <path class="cls-1" d="M664.53,592.16v42.08h-23.02v-73.74h21.63l.46,18.6h-.99c1.8-5.85,4.63-10.56,8.48-14.15,3.85-3.58,9.02-5.38,15.53-5.38,5.14,0,9.63,1.14,13.45,3.43,3.83,2.29,6.79,5.52,8.9,9.7,2.11,4.18,3.17,9.04,3.17,14.58v46.96h-23.02v-42.47c0-4.13-1.06-7.38-3.17-9.73-2.11-2.35-5.06-3.53-8.84-3.53-2.46,0-4.65.54-6.56,1.62-1.91,1.08-3.4,2.63-4.45,4.65-1.06,2.02-1.58,4.48-1.58,7.39Z"/>
      <path class="cls-1" d="M754.03,635.3c-5.45,0-10.42-1.42-14.91-4.25-4.48-2.84-8.05-7.06-10.68-12.66-2.64-5.61-3.96-12.59-3.96-20.94s1.37-15.73,4.12-21.34c2.75-5.61,6.35-9.76,10.82-12.47,4.46-2.7,9.27-4.06,14.41-4.06,3.91,0,7.25.67,10.03,2.01,2.77,1.34,5.05,3.05,6.83,5.11,1.78,2.07,3.13,4.22,4.06,6.46h.53v-37.2h22.95v98.27h-22.69v-11.94h-.79c-.97,2.2-2.36,4.29-4.19,6.27-1.82,1.98-4.09,3.59-6.79,4.85-2.7,1.25-5.95,1.88-9.73,1.88ZM761.88,617.36c2.9,0,5.4-.82,7.49-2.47,2.09-1.65,3.68-3.97,4.78-6.96,1.1-2.99,1.65-6.49,1.65-10.49s-.55-7.62-1.65-10.59c-1.1-2.97-2.69-5.25-4.78-6.86-2.09-1.6-4.58-2.41-7.49-2.41s-5.44.82-7.49,2.47c-2.04,1.65-3.59,3.96-4.65,6.92s-1.58,6.45-1.58,10.45.53,7.44,1.58,10.45c1.06,3.01,2.61,5.34,4.65,6.99,2.04,1.65,4.54,2.47,7.49,2.47Z"/>
      <path class="cls-1" d="M813.45,634.24v-73.74h22.36v13.45h.79c1.32-4.88,3.51-8.5,6.56-10.85,3.06-2.35,6.61-3.53,10.65-3.53,1.06,0,2.17.07,3.33.2,1.16.13,2.23.33,3.2.59v20.05c-1.1-.4-2.54-.69-4.32-.89s-3.37-.3-4.78-.3c-2.81,0-5.34.63-7.58,1.88s-4,2.98-5.28,5.18c-1.28,2.2-1.91,4.77-1.91,7.72v40.23h-23.02Z"/>
      <path class="cls-1" d="M872.09,660.09l5.14-16.82,2.9.79c2.77.7,5.2.9,7.29.59,2.09-.31,3.69-1.08,4.81-2.31,1.12-1.23,1.62-2.86,1.48-4.88l-.07-3.1-27.5-73.87h24.27l11.01,36.08c1.49,4.92,2.67,9.87,3.53,14.84.86,4.97,1.88,10.31,3.07,16.03h-4.75c1.19-5.72,2.37-11.08,3.56-16.09,1.19-5.01,2.55-9.94,4.09-14.77l11.81-36.08h24.01l-30.93,81.52c-1.5,3.96-3.45,7.46-5.87,10.52-2.42,3.06-5.51,5.45-9.27,7.19-3.76,1.74-8.41,2.61-13.95,2.61-2.81,0-5.53-.21-8.15-.63-2.62-.42-4.78-.96-6.5-1.62Z"/>
    </g>
    <g>
      <path class="cls-1" d="M236.23,740.66c-4.16,0-7.78-.66-10.85-1.98s-5.47-3.21-7.2-5.67c-1.73-2.46-2.69-5.38-2.86-8.77h8.57c.17,2.02.83,3.69,1.96,5.01s2.61,2.31,4.43,2.95c1.82.65,3.79.97,5.91.97,2.37,0,4.47-.37,6.3-1.1s3.29-1.78,4.36-3.14c1.07-1.36,1.61-2.94,1.61-4.73,0-1.62-.47-2.95-1.4-3.98-.94-1.03-2.19-1.9-3.78-2.58-1.58-.69-3.39-1.29-5.41-1.81l-6.51-1.8c-4.56-1.22-8.12-3.03-10.68-5.42-2.56-2.39-3.83-5.5-3.83-9.31,0-3.22.87-6.03,2.6-8.43,1.73-2.41,4.09-4.28,7.07-5.61,2.98-1.33,6.34-2,10.08-2s7.18.67,10.08,2c2.9,1.33,5.19,3.16,6.85,5.48,1.66,2.32,2.53,4.96,2.6,7.93h-8.3c-.27-2.54-1.45-4.51-3.53-5.91s-4.71-2.09-7.87-2.09c-2.24,0-4.2.35-5.85,1.05-1.66.7-2.94,1.66-3.85,2.9-.91,1.23-1.37,2.64-1.37,4.21,0,1.77.54,3.2,1.63,4.28,1.08,1.08,2.41,1.94,3.96,2.58s3.05,1.14,4.47,1.51l5.42,1.42c1.77.45,3.6,1.05,5.48,1.81,1.88.76,3.62,1.75,5.22,2.96,1.6,1.21,2.89,2.71,3.87,4.49.98,1.78,1.48,3.93,1.48,6.45,0,3.14-.81,5.95-2.43,8.42s-3.97,4.41-7.05,5.82c-3.08,1.41-6.8,2.11-11.17,2.11Z"/>
      <path class="cls-1" d="M321.59,739.73v-22.18l-20.54-33.55h9.95l10.47,17.77c1.17,1.94,2.2,3.81,3.09,5.61.88,1.8,1.8,4.02,2.75,6.66h-2.73c.95-2.69,1.86-4.94,2.75-6.75.89-1.81,1.88-3.65,2.97-5.52l10.36-17.77h9.91l-20.46,33.55v22.18h-8.53Z"/>
      <path class="cls-1" d="M415.66,740.66c-4.16,0-7.78-.66-10.85-1.98s-5.47-3.21-7.2-5.67c-1.73-2.46-2.69-5.38-2.86-8.77h8.57c.17,2.02.83,3.69,1.96,5.01s2.61,2.31,4.43,2.95c1.82.65,3.79.97,5.91.97,2.37,0,4.47-.37,6.3-1.1s3.29-1.78,4.36-3.14c1.07-1.36,1.61-2.94,1.61-4.73,0-1.62-.47-2.95-1.4-3.98-.94-1.03-2.19-1.9-3.78-2.58-1.58-.69-3.39-1.29-5.41-1.81l-6.51-1.8c-4.56-1.22-8.12-3.03-10.68-5.42-2.56-2.39-3.83-5.5-3.83-9.31,0-3.22.87-6.03,2.6-8.43,1.73-2.41,4.09-4.28,7.07-5.61,2.98-1.33,6.34-2,10.08-2s7.18.67,10.08,2c2.9,1.33,5.19,3.16,6.85,5.48,1.66,2.32,2.53,4.96,2.6,7.93h-8.3c-.27-2.54-1.45-4.51-3.53-5.91s-4.71-2.09-7.87-2.09c-2.24,0-4.2.35-5.85,1.05-1.66.7-2.94,1.66-3.85,2.9-.91,1.23-1.37,2.64-1.37,4.21,0,1.77.54,3.2,1.63,4.28,1.08,1.08,2.41,1.94,3.96,2.58s3.05,1.14,4.47,1.51l5.42,1.42c1.77.45,3.6,1.05,5.48,1.81,1.88.76,3.62,1.75,5.22,2.96,1.6,1.21,2.89,2.71,3.87,4.49.98,1.78,1.48,3.93,1.48,6.45,0,3.14-.81,5.95-2.43,8.42-1.62,2.47-3.97,4.41-7.05,5.82-3.08,1.41-6.8,2.11-11.17,2.11Z"/>
      <path class="cls-1" d="M481.5,691.33v-7.33h43.28v7.33h-17.32v48.4h-8.57v-48.4h-17.39Z"/>
      <path class="cls-1" d="M572.62,739.73v-55.74h35.09v7.33h-26.56v16.61h24.65v7.29h-24.65v17.17h26.78v7.33h-35.31Z"/>
      <path class="cls-1" d="M657.12,739.73v-55.74h12.57l12.16,31.98c.35.95.74,2.14,1.18,3.59.44,1.45.89,3.02,1.37,4.71.47,1.7.92,3.37,1.35,5.01.42,1.65.8,3.13,1.12,4.45h-1.8c.32-1.25.7-2.69,1.12-4.32.42-1.63.87-3.3,1.35-4.99.47-1.7.93-3.29,1.38-4.79.45-1.5.85-2.72,1.2-3.67l11.97-31.98h12.64v55.74h-8.49v-30c0-1.15.01-2.52.04-4.12.02-1.59.06-3.28.09-5.07s.07-3.58.11-5.41c.04-1.82.07-3.57.09-5.24h.64c-.5,1.82-1.04,3.7-1.63,5.63-.59,1.93-1.16,3.8-1.72,5.59s-1.1,3.44-1.61,4.92c-.51,1.48-.94,2.71-1.29,3.68l-11.41,30h-7.29l-11.56-30c-.37-.95-.8-2.15-1.29-3.61-.49-1.46-1.02-3.08-1.59-4.86-.57-1.78-1.16-3.64-1.76-5.57-.6-1.93-1.2-3.86-1.8-5.78h.75c.05,1.52.09,3.17.13,4.96.04,1.78.08,3.59.11,5.41.04,1.82.08,3.55.11,5.18.04,1.63.06,3.06.06,4.28v30h-8.3Z"/>
      <path class="cls-1" d="M784.04,740.66c-4.16,0-7.78-.66-10.85-1.98s-5.47-3.21-7.2-5.67c-1.73-2.46-2.69-5.38-2.86-8.77h8.57c.17,2.02.83,3.69,1.96,5.01s2.61,2.31,4.43,2.95c1.82.65,3.79.97,5.91.97,2.37,0,4.47-.37,6.3-1.1s3.29-1.78,4.36-3.14c1.07-1.36,1.61-2.94,1.61-4.73,0-1.62-.47-2.95-1.4-3.98-.94-1.03-2.19-1.9-3.78-2.58-1.58-.69-3.39-1.29-5.41-1.81l-6.51-1.8c-4.56-1.22-8.12-3.03-10.68-5.42-2.56-2.39-3.83-5.5-3.83-9.31,0-3.22.87-6.03,2.6-8.43,1.73-2.41,4.09-4.28,7.07-5.61,2.98-1.33,6.34-2,10.08-2s7.18.67,10.08,2c2.9,1.33,5.19,3.16,6.85,5.48,1.66,2.32,2.53,4.96,2.6,7.93h-8.3c-.27-2.54-1.45-4.51-3.53-5.91s-4.71-2.09-7.87-2.09c-2.24,0-4.2.35-5.85,1.05-1.66.7-2.94,1.66-3.85,2.9-.91,1.23-1.37,2.64-1.37,4.21,0,1.77.54,3.2,1.63,4.28,1.08,1.08,2.41,1.94,3.96,2.58s3.05,1.14,4.47,1.51l5.42,1.42c1.77.45,3.6,1.05,5.48,1.81,1.88.76,3.62,1.75,5.22,2.96,1.6,1.21,2.89,2.71,3.87,4.49.98,1.78,1.48,3.93,1.48,6.45,0,3.14-.81,5.95-2.43,8.42s-3.97,4.41-7.05,5.82c-3.08,1.41-6.8,2.11-11.17,2.11Z"/>
    </g>
  </g>
</svg>