<?xml version="1.0" encoding="UTF-8"?>
<svg id="Camada_1" data-name="Camada 1" xmlns="http://www.w3.org/2000/svg" viewBox="0 0 1650 540">
  <defs>
    <style>
      .cls-1 {
        fill: #fff;
      }
    </style>
  </defs>
  <g>
    <g>
      <polygon class="cls-1" points="476.05 126.88 328.75 88.37 181.45 126.88 329 178.47 476.05 126.88"/>
      <path class="cls-1" d="M316.12,196.03v73.4c-38.41-1.25-76.23-7.27-109.96-17.84-7.82-2.45-16.33-5.44-24.71-9.09v-93.84l134.67,47.37Z"/>
      <path class="cls-1" d="M476.05,148.07v95.84c-1.36.56-2.73,1.1-4.1,1.63-39.23,15.06-84.51,22.92-130.06,24v-73.51l134.16-47.96Z"/>
      <path class="cls-1" d="M241.58,355.01c24.9,4.83,49.73,7.66,74.54,8.49v50.32l-.25,37.8-134.42-57.05v-56.29c19.19,7.62,39.34,12.69,60.13,16.72Z"/>
      <path class="cls-1" d="M425.5,354.14c17.53-3.59,34.35-8.03,50.54-14.28v54.95l-134.16,56.82v-87.99c27.87-.63,55.72-3.8,83.62-9.5Z"/>
    </g>
    <g>
      <path class="cls-1" d="M557.12,266.3c-.07,18.01-22.99,34.04-37.32,42.19-26.94,15.32-55.52,23.96-86.08,30.22-66.53,13.62-132.83,13.9-199.55.95-35.38-6.86-69.09-16.49-99.67-35.26-13.96-8.58-27.81-19.24-32.96-35.03-2.54-7.77-.41-18.1-.62-26.48,16.22,26.37,48,40.3,77.27,50.46,100.22,34.76,248.59,34.02,343.35-16.5,15.13-8.06,27.34-18.53,35.68-34.2l-.09,23.65Z"/>
      <path class="cls-1" d="M547.01,242.61c-14.19,14.93-31.75,24.58-51.55,32.15-92.59,35.45-210.12,35.88-305.01,8.23-28.22-8.23-87.76-30.19-89.92-64.64-1.51-24.08,28.07-41.67,50.07-50.3v11.86c-8.96,4.27-17.02,9.34-24.08,16.4-7.46,7.44-8.61,17.99-2.21,26.76,15.31,21.02,46.57,33.86,71.44,41.64,88.09,27.59,201.81,26.67,288.36-6.57,17.95-6.89,34.38-15.85,46.91-29.64,8.8-9.69,8.66-22.19-.31-31.5-8.69-9.01-17.38-12.97-23.8-15.72v-11.75c14.79,5.78,28.75,13.25,39.31,24.26,13.99,14.58,14.62,34.31.8,48.84Z"/>
    </g>
  </g>
  <g>
    <g>
      <path class="cls-1" d="M703.89,171.3v97.76h-23.16v-97.76h23.16Z"/>
      <path class="cls-1" d="M719.05,269.06v-73.36h22.24v13.38h.79c1.31-4.86,3.49-8.45,6.53-10.79,3.04-2.34,6.57-3.51,10.6-3.51,1.05,0,2.15.07,3.31.2,1.16.13,2.22.33,3.18.59v19.95c-1.09-.39-2.53-.69-4.3-.89-1.77-.2-3.36-.3-4.76-.3-2.8,0-5.32.62-7.55,1.87s-3.98,2.96-5.25,5.15c-1.27,2.19-1.9,4.75-1.9,7.68v40.02h-22.9Z"/>
      <path class="cls-1" d="M787.22,187.11c-3.24,0-6.01-1.08-8.33-3.25-2.32-2.17-3.48-4.76-3.48-7.78s1.16-5.66,3.48-7.81c2.32-2.14,5.1-3.21,8.33-3.21s6.08,1.07,8.4,3.21c2.32,2.14,3.48,4.77,3.48,7.87s-1.16,5.6-3.48,7.74c-2.32,2.14-5.12,3.21-8.4,3.21ZM775.81,269.06v-73.36h22.9v73.36h-22.9Z"/>
      <path class="cls-1" d="M844.76,270.44c-6.26,0-11.79-.89-16.6-2.66-4.81-1.77-8.73-4.33-11.74-7.68-3.02-3.35-4.96-7.36-5.84-12.04l21.26-3.35c.92,3.19,2.47,5.6,4.66,7.22,2.19,1.62,5.23,2.43,9.12,2.43,3.19,0,5.71-.56,7.55-1.67,1.84-1.12,2.76-2.59,2.76-4.43,0-1.71-.73-3.07-2.2-4.1-1.47-1.03-3.73-1.85-6.79-2.46l-12.79-2.49c-7.26-1.4-12.7-3.86-16.31-7.38-3.61-3.52-5.41-8.1-5.41-13.75,0-4.9,1.32-9.08,3.97-12.53,2.65-3.45,6.39-6.11,11.22-7.97,4.83-1.86,10.53-2.79,17.09-2.79,6.12,0,11.45.82,15.98,2.46,4.53,1.64,8.18,3.98,10.96,7.02,2.78,3.04,4.58,6.66,5.41,10.86l-20.21,3.21c-.66-2.45-2-4.36-4.04-5.74-2.03-1.38-4.6-2.07-7.71-2.07-2.76,0-5.08.56-6.99,1.67-1.9,1.12-2.85,2.61-2.85,4.49,0,1.49.59,2.79,1.77,3.9s3.35,1.98,6.5,2.59l14.04,2.62c7.26,1.4,12.67,3.72,16.24,6.95,3.57,3.24,5.35,7.52,5.35,12.86,0,5.03-1.48,9.4-4.43,13.12-2.95,3.72-7.01,6.59-12.17,8.63-5.16,2.03-11.09,3.05-17.78,3.05Z"/>
      <path class="cls-1" d="M913.79,227.2v41.86h-22.9v-97.76h22.44v42.91h-1.44c1.79-5.82,4.6-10.51,8.43-14.07,3.83-3.56,8.98-5.35,15.45-5.35,5.12,0,9.58,1.14,13.39,3.41,3.81,2.28,6.76,5.49,8.86,9.65,2.1,4.16,3.15,8.99,3.15,14.5v46.72h-22.9v-42.25c0-4.11-1.05-7.34-3.15-9.68-2.1-2.34-5.03-3.51-8.79-3.51-2.45,0-4.63.54-6.53,1.61-1.9,1.07-3.38,2.61-4.43,4.63-1.05,2.01-1.57,4.46-1.57,7.35Z"/>
      <path class="cls-1" d="M1005.71,269.06v-97.76h23.16v78.87h40.88v18.9h-64.04Z"/>
      <path class="cls-1" d="M1102.17,270.37c-4.68,0-8.85-.8-12.5-2.39-3.65-1.6-6.51-4-8.56-7.22-2.06-3.21-3.08-7.23-3.08-12.04,0-4.07.71-7.5,2.13-10.3,1.42-2.8,3.4-5.07,5.94-6.82,2.54-1.75,5.45-3.08,8.73-4,3.28-.92,6.78-1.53,10.5-1.84,4.16-.35,7.5-.73,10.04-1.15,2.54-.42,4.4-1.04,5.58-1.87,1.18-.83,1.77-1.99,1.77-3.48v-.26c0-1.71-.39-3.15-1.18-4.33-.79-1.18-1.93-2.08-3.41-2.69-1.49-.61-3.28-.92-5.38-.92s-3.97.31-5.61.92c-1.64.61-2.99,1.49-4.04,2.62-1.05,1.14-1.79,2.47-2.23,4l-20.73-2.69c.96-4.2,2.85-7.88,5.67-11.06,2.82-3.17,6.52-5.64,11.09-7.41,4.57-1.77,9.92-2.66,16.04-2.66,4.55,0,8.8.54,12.76,1.61,3.96,1.07,7.42,2.65,10.4,4.72,2.97,2.08,5.29,4.64,6.95,7.68,1.66,3.04,2.49,6.53,2.49,10.46v49.8h-21.52v-10.3h-.59c-1.31,2.54-2.99,4.66-5.02,6.36-2.03,1.71-4.4,3.01-7.09,3.9-2.69.9-5.74,1.35-9.15,1.35ZM1109.12,255.22c2.58,0,4.91-.52,6.99-1.57,2.08-1.05,3.73-2.49,4.95-4.33,1.22-1.84,1.84-3.96,1.84-6.36v-7.02c-.66.35-1.48.68-2.46.98-.98.31-2.07.58-3.25.82-1.18.24-2.36.46-3.54.66-1.18.2-2.32.38-3.41.56-2.23.31-4.13.83-5.71,1.57-1.57.74-2.78,1.71-3.61,2.89-.83,1.18-1.25,2.6-1.25,4.27s.42,2.99,1.25,4.1c.83,1.12,1.95,1.97,3.35,2.56,1.4.59,3.02.89,4.86.89Z"/>
      <path class="cls-1" d="M1186.15,269.98c-5.12,0-9.59-1.14-13.42-3.41-3.83-2.27-6.79-5.49-8.89-9.64-2.1-4.16-3.15-8.99-3.15-14.5v-46.72h22.9v42.25c0,4.11,1.06,7.34,3.18,9.68,2.12,2.34,5.04,3.51,8.76,3.51,2.54,0,4.73-.54,6.59-1.61,1.86-1.07,3.31-2.62,4.36-4.66,1.05-2.03,1.57-4.47,1.57-7.32v-41.86h22.9v73.36h-21.52l-.39-18.5h.98c-1.84,5.86-4.68,10.56-8.53,14.11-3.85,3.54-8.97,5.31-15.35,5.31Z"/>
      <path class="cls-1" d="M1268.96,227.2v41.86h-22.9v-73.36h21.52l.46,18.5h-.98c1.79-5.82,4.6-10.51,8.43-14.07,3.83-3.56,8.98-5.35,15.45-5.35,5.12,0,9.58,1.14,13.39,3.41,3.81,2.28,6.76,5.49,8.86,9.65,2.1,4.16,3.15,8.99,3.15,14.5v46.72h-22.9v-42.25c0-4.11-1.05-7.34-3.15-9.68-2.1-2.34-5.03-3.51-8.79-3.51-2.45,0-4.63.54-6.53,1.61-1.9,1.07-3.38,2.61-4.43,4.63-1.05,2.01-1.57,4.46-1.57,7.35Z"/>
      <path class="cls-1" d="M1358,270.11c-5.42,0-10.37-1.41-14.83-4.23-4.46-2.82-8-7.02-10.63-12.6-2.62-5.58-3.94-12.52-3.94-20.83s1.37-15.65,4.1-21.23c2.73-5.58,6.32-9.71,10.76-12.4,4.44-2.69,9.22-4.04,14.34-4.04,3.89,0,7.22.67,9.97,2,2.76,1.33,5.02,3.03,6.79,5.09,1.77,2.06,3.12,4.2,4.04,6.43h.52v-37.01h22.83v97.76h-22.57v-11.88h-.79c-.96,2.19-2.35,4.27-4.17,6.23-1.82,1.97-4.07,3.58-6.76,4.82-2.69,1.25-5.92,1.87-9.68,1.87ZM1365.8,252.26c2.89,0,5.37-.82,7.45-2.46,2.08-1.64,3.66-3.95,4.76-6.92,1.09-2.97,1.64-6.45,1.64-10.43s-.55-7.58-1.64-10.53c-1.09-2.95-2.68-5.23-4.76-6.82-2.08-1.6-4.56-2.39-7.45-2.39s-5.41.82-7.45,2.46c-2.03,1.64-3.58,3.94-4.63,6.89-1.05,2.95-1.57,6.42-1.57,10.4s.53,7.4,1.57,10.4c1.05,3,2.59,5.31,4.63,6.95,2.03,1.64,4.52,2.46,7.45,2.46Z"/>
      <path class="cls-1" d="M1417.11,269.06v-73.36h22.24v13.38h.79c1.31-4.86,3.49-8.45,6.53-10.79,3.04-2.34,6.57-3.51,10.6-3.51,1.05,0,2.15.07,3.31.2,1.16.13,2.22.33,3.18.59v19.95c-1.09-.39-2.53-.69-4.3-.89s-3.36-.3-4.76-.3c-2.8,0-5.32.62-7.55,1.87s-3.98,2.96-5.25,5.15c-1.27,2.19-1.9,4.75-1.9,7.68v40.02h-22.9Z"/>
      <path class="cls-1" d="M1475.44,294.78l5.12-16.73,2.89.79c2.76.7,5.17.9,7.25.59,2.08-.31,3.67-1.07,4.79-2.3,1.12-1.23,1.61-2.84,1.48-4.86l-.07-3.08-27.36-73.49h24.15l10.96,35.89c1.49,4.9,2.66,9.82,3.51,14.76.85,4.94,1.87,10.26,3.05,15.94h-4.72c1.18-5.69,2.36-11.02,3.54-16.01,1.18-4.99,2.54-9.88,4.07-14.7l11.74-35.89h23.88l-30.77,81.1c-1.49,3.94-3.43,7.43-5.84,10.47-2.41,3.04-5.48,5.42-9.22,7.15-3.74,1.73-8.37,2.59-13.88,2.59-2.8,0-5.5-.21-8.1-.62-2.6-.42-4.76-.95-6.46-1.61Z"/>
    </g>
    <g>
      <path class="cls-1" d="M700.37,374.94c-4.14,0-7.74-.66-10.79-1.97-3.05-1.31-5.44-3.19-7.16-5.64-1.72-2.44-2.67-5.35-2.85-8.73h8.52c.17,2.01.82,3.67,1.95,4.99,1.13,1.31,2.6,2.3,4.41,2.94,1.81.65,3.77.97,5.88.97,2.36,0,4.45-.37,6.27-1.1,1.82-.73,3.27-1.77,4.34-3.13,1.07-1.35,1.6-2.92,1.6-4.71,0-1.61-.47-2.93-1.4-3.96-.93-1.03-2.18-1.89-3.76-2.57-1.58-.68-3.37-1.28-5.38-1.8l-6.48-1.79c-4.54-1.22-8.08-3.01-10.62-5.4-2.54-2.38-3.81-5.47-3.81-9.27,0-3.2.86-6,2.59-8.39,1.72-2.39,4.07-4.25,7.03-5.58,2.96-1.33,6.31-1.99,10.03-1.99s7.14.66,10.03,1.99c2.89,1.33,5.16,3.14,6.81,5.45,1.65,2.31,2.51,4.94,2.59,7.89h-8.26c-.27-2.53-1.45-4.49-3.52-5.88-2.07-1.39-4.68-2.08-7.83-2.08-2.23,0-4.17.35-5.82,1.04-1.65.69-2.93,1.66-3.83,2.88-.91,1.23-1.36,2.62-1.36,4.19,0,1.76.54,3.18,1.62,4.26,1.08,1.08,2.39,1.93,3.94,2.57s3.03,1.13,4.45,1.51l5.4,1.41c1.76.45,3.58,1.05,5.45,1.8,1.87.76,3.6,1.74,5.19,2.94,1.59,1.2,2.87,2.69,3.85,4.46.98,1.77,1.47,3.91,1.47,6.42,0,3.13-.81,5.92-2.42,8.37-1.61,2.46-3.95,4.39-7.01,5.79-3.06,1.4-6.77,2.1-11.11,2.1Z"/>
      <path class="cls-1" d="M785.29,374.01v-22.07l-20.43-33.38h9.9l10.42,17.68c1.17,1.93,2.19,3.8,3.07,5.58.88,1.79,1.79,3.99,2.73,6.62h-2.72c.94-2.68,1.85-4.92,2.73-6.72.88-1.8,1.87-3.63,2.96-5.49l10.31-17.68h9.86l-20.35,33.38v22.07h-8.48Z"/>
      <path class="cls-1" d="M878.88,374.94c-4.14,0-7.74-.66-10.79-1.97-3.05-1.31-5.44-3.19-7.16-5.64-1.72-2.44-2.67-5.35-2.85-8.73h8.52c.17,2.01.82,3.67,1.95,4.99s2.6,2.3,4.41,2.94c1.81.65,3.77.97,5.88.97,2.36,0,4.45-.37,6.27-1.1,1.82-.73,3.27-1.77,4.34-3.13,1.07-1.35,1.6-2.92,1.6-4.71,0-1.61-.47-2.93-1.4-3.96-.93-1.03-2.18-1.89-3.76-2.57-1.58-.68-3.37-1.28-5.38-1.8l-6.48-1.79c-4.54-1.22-8.08-3.01-10.62-5.4-2.54-2.38-3.81-5.47-3.81-9.27,0-3.2.86-6,2.59-8.39,1.72-2.39,4.07-4.25,7.03-5.58,2.96-1.33,6.31-1.99,10.03-1.99s7.14.66,10.03,1.99c2.89,1.33,5.16,3.14,6.81,5.45,1.65,2.31,2.51,4.94,2.59,7.89h-8.26c-.27-2.53-1.45-4.49-3.52-5.88-2.07-1.39-4.68-2.08-7.83-2.08-2.23,0-4.17.35-5.82,1.04-1.65.69-2.93,1.66-3.83,2.88-.91,1.23-1.36,2.62-1.36,4.19,0,1.76.54,3.18,1.62,4.26,1.08,1.08,2.39,1.93,3.94,2.57s3.03,1.13,4.45,1.51l5.4,1.41c1.76.45,3.58,1.05,5.45,1.8,1.87.76,3.6,1.74,5.19,2.94,1.59,1.2,2.87,2.69,3.85,4.46.98,1.77,1.47,3.91,1.47,6.42,0,3.13-.81,5.92-2.42,8.37-1.61,2.46-3.95,4.39-7.01,5.79-3.06,1.4-6.77,2.1-11.11,2.1Z"/>
      <path class="cls-1" d="M944.38,325.85v-7.29h43.06v7.29h-17.23v48.15h-8.52v-48.15h-17.3Z"/>
      <path class="cls-1" d="M1035.03,374.01v-55.45h34.91v7.29h-26.42v16.52h24.52v7.26h-24.52v17.08h26.64v7.29h-35.13Z"/>
      <path class="cls-1" d="M1119.09,374.01v-55.45h12.5l12.09,31.82c.35.94.74,2.13,1.17,3.57.43,1.44.89,3,1.36,4.69.47,1.69.92,3.35,1.34,4.99.42,1.64.79,3.11,1.12,4.43h-1.79c.32-1.24.69-2.67,1.12-4.3.42-1.62.87-3.28,1.34-4.97.47-1.69.93-3.27,1.38-4.76.45-1.49.84-2.7,1.19-3.65l11.91-31.82h12.58v55.45h-8.45v-29.84c0-1.14.01-2.51.04-4.09.02-1.59.06-3.27.09-5.04.04-1.77.07-3.57.11-5.38.04-1.81.07-3.55.09-5.21h.63c-.5,1.81-1.04,3.68-1.62,5.6-.58,1.92-1.15,3.78-1.71,5.56-.56,1.79-1.09,3.42-1.6,4.89-.51,1.48-.94,2.7-1.28,3.67l-11.35,29.84h-7.26l-11.5-29.84c-.37-.94-.8-2.14-1.28-3.59-.48-1.45-1.01-3.06-1.58-4.84-.57-1.77-1.15-3.62-1.75-5.54-.59-1.92-1.19-3.84-1.79-5.75h.74c.05,1.51.09,3.16.13,4.93.04,1.77.07,3.57.11,5.38.04,1.81.07,3.53.11,5.15.04,1.62.06,3.04.06,4.26v29.84h-8.26Z"/>
      <path class="cls-1" d="M1245.35,374.94c-4.14,0-7.74-.66-10.79-1.97-3.05-1.31-5.44-3.19-7.16-5.64-1.72-2.44-2.67-5.35-2.85-8.73h8.52c.17,2.01.82,3.67,1.95,4.99s2.6,2.3,4.41,2.94c1.81.65,3.77.97,5.88.97,2.36,0,4.45-.37,6.27-1.1,1.82-.73,3.27-1.77,4.34-3.13,1.07-1.35,1.6-2.92,1.6-4.71,0-1.61-.47-2.93-1.4-3.96-.93-1.03-2.18-1.89-3.76-2.57-1.58-.68-3.37-1.28-5.38-1.8l-6.48-1.79c-4.54-1.22-8.08-3.01-10.62-5.4-2.54-2.38-3.81-5.47-3.81-9.27,0-3.2.86-6,2.59-8.39,1.72-2.39,4.07-4.25,7.03-5.58,2.96-1.33,6.31-1.99,10.03-1.99s7.14.66,10.03,1.99c2.89,1.33,5.16,3.14,6.81,5.45,1.65,2.31,2.51,4.94,2.59,7.89h-8.26c-.27-2.53-1.45-4.49-3.52-5.88-2.07-1.39-4.68-2.08-7.83-2.08-2.23,0-4.17.35-5.82,1.04-1.65.69-2.93,1.66-3.83,2.88-.91,1.23-1.36,2.62-1.36,4.19,0,1.76.54,3.18,1.62,4.26,1.08,1.08,2.39,1.93,3.94,2.57s3.03,1.13,4.45,1.51l5.4,1.41c1.76.45,3.58,1.05,5.45,1.8,1.87.76,3.6,1.74,5.19,2.94,1.59,1.2,2.87,2.69,3.85,4.46.98,1.77,1.47,3.91,1.47,6.42,0,3.13-.81,5.92-2.42,8.37-1.61,2.46-3.95,4.39-7.01,5.79-3.06,1.4-6.77,2.1-11.11,2.1Z"/>
    </g>
  </g>
</svg>